<svg xmlns="http://www.w3.org/2000/svg" viewBox="0 0 298.65 88.31"><defs><style>.cls-1{fill:#fff;}</style></defs><title>aliance</title><g id="Capa_2" data-name="Capa 2"><g id="Capa_1-2" data-name="Capa 1"><path class="cls-1" d="M39.13,48.94A400,400,0,0,0,65.86.47L66,.37h.19V.19c.92-.83,3.79,1.29,3.14,2.31l-.18.28H69c-.09,1.66-.18,3.42-.18,5.09,0,12.85,2.68,26,6.57,46,8.23-.93,19.79-2.59,21.27-2.68.37-.37-.46,1.75-1.48,2.49-2,1.39-12.3,2.5-19.24,3.06C78.16,67,80.66,76.22,83.43,86.58c.19.65-2,2.68-3,1.2-7.49-13-18.13-24.32-29.6-30.43l-.27-.09c-4.54-.09-8.61-.28-12.49-.55-16.56,23.77-24.33,32.18-31.64,30-.74-.74-.83-1.66.1-1.57,7.77.65,17.85-14.43,27.56-28.67C13.5,54.48,3.51,50,1,46.34a4.94,4.94,0,0,1-1-3,3,3,0,0,1,2.68-3.15,16.66,16.66,0,0,1,4.9-.09C12.21,40.52,25,42.92,39.13,48.94Zm-3.24,4.81,2-3.06a97.73,97.73,0,0,0-29-8.23c-1.2-.18-6.66-.37-5.37,2.5C5.27,48.1,20.63,52.45,35.89,53.75Zm5.36-1.58A13,13,0,0,1,40,54c1.76.09,3.51.09,5.18.09ZM72,54.11h.1C68.82,39.87,65.21,18.69,65.4,8.7,58.83,23.59,52.17,34,43.38,49.12l-.92,1.29c2.68,1.3,5.45,2.69,8.14,4.17C55.59,54.76,63.27,54.3,72,54.11ZM55.41,57.45A86,86,0,0,1,75.85,75.2l2.22,2.69c-1.94-7.12-3.79-14-5.37-20.91H71.32C65.12,57.08,59.57,57.45,55.41,57.45Z"/><path class="cls-1" d="M96.57,64.48c-1.76-2.78-2.41-9.35-2.41-17,0-15.36,2.59-35.25,3.79-39.13.1-.56.65-.65,1.58-.28s1.66,1.2,1.66,1.67c-.55,1.75-3.24,24-3.24,40,0,8.23.74,14.8,2.78,16.18,4.81,3,16-12.11,17.39-13.87.92-1.3,1.11,1,.74,2.12-1.67,4.63-9.07,14.62-14.9,14.62A9.17,9.17,0,0,1,96.57,64.48Z"/><path class="cls-1" d="M116.73,53.19c0-2.87.56-5.73,1.57-7.31.09-.46,1-.55,2.13-.27s1.57,1.11,1.48,1.57c-.74.74-2.59,11.19-1.2,12.39a4.36,4.36,0,0,0,2.68.83c5.73,0,15.54-7.39,18.31-10.17.37-.37,1.3.18.19,2.22-1.76,3.24-10.17,10.55-16.56,10.82a8.14,8.14,0,0,1-6.57-2.4C117.38,59.39,116.73,56.24,116.73,53.19Zm2.77-15.35c.19-.28.84-2.13,1-2.59l.19-1.39c0-.56,1-.74,1.94-.37,1.2.28,1.94,1,1.76,1.48a3.48,3.48,0,0,1-.28,1.57c-.18.46-.93,2.5-1.2,3s-1.39.37-2.22-.09C119.6,39,119,38.21,119.5,37.84Z"/><path class="cls-1" d="M137.45,56.24a6.8,6.8,0,0,1,3.33-5.64,16.1,16.1,0,0,1,8.88-2.5,18.7,18.7,0,0,1,7.49,1.58h.09l1.58-2.13c.55-1,3.7,1,3.05,2.13a22.37,22.37,0,0,0-1.48,4.8c-.09,1.58.37,3.43,2,3.89,4.72.93,12.68-3.79,16-7.49,1.58-1.57,3,.74-2.12,5.83C174,59,167.6,62,163.72,61.05a8.7,8.7,0,0,1-6.57-5.82c-2.59,2.31-8.69,7-13.6,7a6,6,0,0,1-3.33-.92A6.27,6.27,0,0,1,137.45,56.24Zm18.13-4.71a13.07,13.07,0,0,0-3.61-.47c-4.62,0-10.73,1.76-11.75,6a1.69,1.69,0,0,0,1.67,2.22C146.33,58.74,152.34,55,155.58,51.53Z"/><path class="cls-1" d="M176.85,57.72l.93-9.25c0-.64.92-.74,1.85-.37.74.46,1.57,1.3,1.48,1.85l-.19,3.15c3.15-2.31,9.81-5.64,15-5.09,1.75.18,3.42,1.85,3.42,3.24,0,1.57-1,5.08.18,6.84a4.79,4.79,0,0,0,3.15,1c5.73,0,13.78-7.31,16.74-8.79.37-.18.74,1.85-.65,3.61-2.22,2.87-8.23,7.77-14.7,7.77a8.87,8.87,0,0,1-7.31-3.52,8,8,0,0,1-1.2-4.62,19.52,19.52,0,0,1,.27-3.15c-6.84.75-13.87,5.19-15.63,9.07l-.09,2.13c.09,1.2-3.15.37-3.24-1.11A9.5,9.5,0,0,1,176.85,57.72Z"/><path class="cls-1" d="M219,62.81a1.71,1.71,0,0,1-.56-.09,2,2,0,0,1-1.2-1,1.52,1.52,0,0,1,0-1.48c0-.09.19-.19.28-.19l.09-.09c3.79-2.22,9-4.9,12.86-8.23l.55-.46-4.07.46c-3,.37-5.82.65-8.6.74a2,2,0,0,1-1.66-1.29c-.37-.84-.19-1.48.55-1.48,5.46-.19,11.38-1.12,17.3-1.76,1.29-.19,2.68,1.48,2,2.4-2.86,3.61-7.58,6.76-11.84,9.16l-.18.09h.92c1.48-.09,3.15-.09,4.81-.09a36.48,36.48,0,0,1,7.22.55,2.34,2.34,0,0,1,1.76,1.67c.09.74-.37,1.2-1.21,1.11a33.17,33.17,0,0,0-7-.65c-1.48,0-3,.09-4.25.19l-5.09.28a13.38,13.38,0,0,1-1.66.18Z"/><path class="cls-1" d="M242.89,56.24a6.8,6.8,0,0,1,3.33-5.64,16.1,16.1,0,0,1,8.88-2.5,18.7,18.7,0,0,1,7.49,1.58h.1l1.57-2.13c.55-1,3.7,1,3.05,2.13a22.94,22.94,0,0,0-1.48,4.8c-.09,1.58.37,3.43,2,3.89,4.71.93,12.67-3.79,16-7.49,1.57-1.57,3,.74-2.13,5.83-2.31,2.31-8.69,5.27-12.58,4.34a8.72,8.72,0,0,1-6.57-5.82c-2.59,2.31-8.69,7-13.59,7a6,6,0,0,1-3.33-.92A6.28,6.28,0,0,1,242.89,56.24ZM261,51.53a13,13,0,0,0-3.61-.47c-4.62,0-10.73,1.76-11.74,6a1.68,1.68,0,0,0,1.66,2.22C251.77,58.74,257.78,55,261,51.53Z"/><path class="cls-1" d="M282.76,60.78a14.68,14.68,0,0,0,3.05.27,44.8,44.8,0,0,0,9.06-1c-2.31-1.2-5.82-3-7.67-4-2.41-1.39-5-2.31-5.37-5.09-.74-4.9,9.34-7.86,14.06-8.51,1.48-.19,3.33,1.57,2.59,2.5-3.42,1.2-11.84,2.77-12.86,5.18-.55,1.29,1.58,2.22,3.43,3.33a65.38,65.38,0,0,1,8.14,4.81c2,1.75.27,4.35-2.13,5a26.15,26.15,0,0,1-6.48.74,17.65,17.65,0,0,1-5.92-.83C281.55,62.63,280.72,60.31,282.76,60.78Z"/></g></g></svg>