<svg id="Capa_1" data-name="Capa 1" xmlns="http://www.w3.org/2000/svg" viewBox="0 0 228.65 77.21"><defs><style>.cls-1{fill:#ef861c;}.cls-2{fill:#fdfffd;}.cls-3{fill:#fff;}.cls-4{fill:#b9bab9;}.cls-5{fill:#d0d2d2;}.cls-6{fill:#dadada;}.cls-7{fill:#d2d3d3;}.cls-8{fill:#dadcdb;}.cls-9{fill:#d6d7d7;}.cls-10{fill:#eef0ef;}.cls-11{fill:#e5e7e6;}.cls-12{fill:#f5f6f6;}.cls-13{fill:#d9d9d9;}.cls-14{fill:#4cac33;}.cls-15{fill:#060808;}.cls-16{fill:#050505;}.cls-17{fill:#5b5c5b;}.cls-18{fill:#383a39;}</style></defs><title>cars</title><path class="cls-1" d="M158.4,70.45a3.45,3.45,0,0,0-2.77-1q-49.18,0-98.38,0c-2.72,0-3.18,2.26-4.67,3.5a1.45,1.45,0,0,1-1,.62,3.9,3.9,0,0,1-2.29-.23c-.66-2.22-.08-3.77,2-5.27.36-.26,1.2-.4.19-1,.12-2.15,1.5-4,1.66-6.11a.9.9,0,0,1,.94-.15c-.05-.41-.42-.16-.6-.29-.86-.64-.28-1.19.15-1.69,1.09-1.27.64-2.14-.66-2.83-1.17-1-1.34-2.66-2.63-3.54a12.84,12.84,0,0,1-1.75-1.71c-1.6-2.12-4.24-2.29-6.39-3.38-.62-.51-1.43-1-.66-2-.78.66-.77,1.91-1.79,2.36a17,17,0,0,0-6.71,2.51c-1,.66-3.33.1-2.52,2.57-.41,1.41-.66,2.91-2.11,3.73-.4.11-.87-.22-1,.69a16.92,16.92,0,0,0,.45,6.65,3.24,3.24,0,0,1,0,2.52,4.92,4.92,0,0,1-.51.69A3.86,3.86,0,0,1,23.72,69c-6.66,0-13.31,0-20,0C1,69,.68,68.58.66,65.79c0-2.51,0-5,0-7.52,0-.84.2-1.75-.5-2.46a6.93,6.93,0,0,1,1.58-6c1.72-2,1.08-4.61,1.47-6.93A103.19,103.19,0,0,1,5.81,29.72c.8-2.59,2.25-3.72,5.08-3.65,4,.1,8.1-.25,12.16-.41.91.95,2.06.34,3.1.46s2.06-.4,2.75.7c-.13-.33.26.46,0,.27-.05,0-.18.24-.13.23a8.77,8.77,0,0,1,2.93.19,12.31,12.31,0,0,1,1.92.26,7.66,7.66,0,0,0,2.13.24c9.54,1.3,19.06,2.7,28.62,3.81a18.75,18.75,0,0,0,2.59.24c10.33-.29,20.64.53,31,.63,11.53.11,23.06.66,34.58,1.08,6.66.24,13.33.64,20,1.1,3,.2,6.05.29,9.06.51a11.16,11.16,0,0,0,4.94.33,2.84,2.84,0,0,1,.77,0c1.07.41,2.14,1,3.32.29a4.36,4.36,0,0,1,4.38-.56c1.67.67,3.67.42,5.2,1.28s.28-.83.81-.65a2,2,0,0,1,.77,0c2.3,1.09,3.27.39,2.94-2.13.55-.41.94-.16,1.29.3.38,1,.49,2.08.95,3.06,1,1.43,2.46,1.13,3.87.82,2-.42,4-1,5.78.5-.39.94-1.5,0-2,.79a6.25,6.25,0,0,0,1,.39c7,1.62,9.81,6.69,10.94,13.14.38,2.13.76,4.18,2.16,6,1.1,1.41.38,3.18.48,4.78.11,1.89,0,3.8,0,5.7-5.57.84-11.18-.07-16.76.24-2.24.13-4.49-.3-6.7.26-1.48,1.09-2.27,3-4.17,3.55-.79-.8-1.32-.15-2,.28a13.42,13.42,0,0,1-11.62,1.9c-.79-.22-1.77-.5-1.4-1.41.28-.69.53-2.06,1.93-1.64,1.81.54,3.61-.38,5.42,0a1.34,1.34,0,0,0,1.7-.83c.81-1.46,2.84-1.55,3.54-3.13a2.06,2.06,0,0,1,1.13-1c.85-.21,1.81.86,2.6-.25,1-1.42,2-3.09,2-4.65-.05-2.21,1.17-4.78-1-6.7a8,8,0,0,1-2-3.65c.29-2.18-1.81-1.49-2.7-2.24-1.78-1.8-4.2-2.22-6.47-3-.37.31.18-1.25-.58-.27-.4.54-1,.27-1.35-.08-1.61-1.43-3.36-.92-4.76,0a4.14,4.14,0,0,1-4,.7c.23.83,1.27,1.12.57,1.84s-1.11,2-2,2.31c-2.26.88-1.72,2.94-2.18,4.56a2.86,2.86,0,0,0,0,1.78c.09.22.16.44.24.67a2.54,2.54,0,0,1,0,1.76c-.77,2.14-.17,3.94,1.21,5.7S160.49,70.06,158.4,70.45Z"/><path class="cls-1" d="M167.31,36l-.49,0c-1.21.56-2.39-.25-3.6,0-7.82-.87-15.69-1.26-23.54-1.82-8.12-.57-16.27-.79-24.39-1.39-4.07-.3-8.15-.4-12.21-.52C93.63,32,84.19,31.41,74.76,31c-8.65-.4-17.34-.49-25.95-1.64a9.22,9.22,0,0,0-4.54-.44,13.83,13.83,0,0,1-2.94-.22c-1.21-.46-2.51-.18-3.74-.44-1-.09-2,0-3-.06A16.87,16.87,0,0,0,32,27.89c-1.05-.39-2.24-.26-3.25-.82-1.28-.79-2.63-.34-4-.31-.7,0-2.11.74-1.76-1.1l4-.12c1.52-.73,3.3.55,4.76-.61l0,0a16.4,16.4,0,0,0,3.05-.37c.23,1.64,1.74,1,2.51,1.12a64.79,64.79,0,0,0,9.76,1.1c1.6,0,2.43-1.1,3.74-1.33,5.45-.29,10.89.33,16.31.64,4.14.24,8.31-.07,12.43.57,1.74.27,1.94-.82,1.86-2.26-.21-3.7-1.14-7.36-.65-11.1.28-.86.83-1.84,1.74-1.33s.32,1.77.55,2.3c.31-2.37.41-2.44,2.41-1.36,1.09,3.15,1,6.47,1.39,9.72.48,4.15.66,4.55,4.84,4.69,4.66.17,9.32.34,14,.6,2.85.16,5.7.09,8.54.45s3.27-.19,2.69-2.91-1.11-5.25-1.59-7.89c-.32-1.8-1.09-3.07-3-3.4a7.81,7.81,0,0,0-3.29-.39,7.78,7.78,0,0,1-2.4-.28c-.79-.42-1.66-1-1.18-1.94.38-.76,1.4-.63,2.13-.38,1.55.53,3.16,0,4.55.18-.46-.47-1.53.27-2.29-.68,1.14-.76,1.84-2,3.43-1.84A15.4,15.4,0,0,1,120,11.33c9.9,6.2,19.88,12.26,29.8,18.44,1,.6,1.37,0,2-.41L190.49,3.13a11.15,11.15,0,0,1,1.52-1,1.2,1.2,0,0,1,1.6.42c.53.67.16,1.15-.29,1.56a12,12,0,0,1-1.47,1.07c-9.73,6.61-19.45,13.25-29.23,19.8-1.4.93-2,1.63-.76,3.1a2.65,2.65,0,0,1,.67,1.9c-.46,2.3,1.17,2.42,2.63,2.73,5.25,1.13,10.51,2.22,15.77,3.33l.73,1.69c-2-1.24-4.09-.7-5.95-1.64a5.36,5.36,0,0,0-5.32.46A4.33,4.33,0,0,1,167.31,36Z"/><path class="cls-1" d="M85,12.56c-1.06.4-1.06.4-1.79,2.7.17-1-1.23-1.25-.75-2.62.35-1-.69.09-1.07-.07-3.28.19-6.56.43-9.83.62-6.74.41-11.57,4.24-16.24,8.48-1.66,1.51-3,3.39-5.07,4.41-.5,1.05-.94,1.37-2.43,1.4-3.58.06-7-.79-10.47-1.1-.92-.08-1.9-1.14-2.73.61-.15-1,.69-1.3.17-2-1,1.23-2,.92-2.95,0Q43,17.18,54.16,9.38c.63-.45,2-.51,1.35-2-.21-.53.52-.5.92-.55A202.07,202.07,0,0,1,89.7,6a167.6,167.6,0,0,1,22.45,2.39,7.61,7.61,0,0,1,1.17.45c-1.22.2-1.5,1.73-2.94,1.87,1.05.5,2.24,0,2.94,1.13-2.29-.29-4.44.51-6.8-.17-1.58-.45,0,.83-.1,1.31a2,2,0,0,1-1.84.76C98.06,13.16,91.5,13,85,12.56Z"/><path class="cls-1" d="M51.68,67.26,53,66.54c-1.58,2-3.55,3.75-3.86,6.49a1.46,1.46,0,0,1-.43.46c-1.32.52.36.42.16.71a1.63,1.63,0,0,1,.12,1,1.67,1.67,0,0,1-.36.65,6.78,6.78,0,0,1-4.71,1.29,37.5,37.5,0,0,1-8.33-.53c-.5.16-.7-.15-.85-.54.74-2.29,2-3.1,4.78-2.42,1.77.44,3,.19,4.06-1.3a4.13,4.13,0,0,1,.42-.31c1.15-.84,3.77-1.3,3.38-2.27a6.61,6.61,0,0,0-4.66-4.2c-.39,1.28,0,2.59-.25,3.87-.26,1.6-1,2.4-2.64,1.41-1.1-1.34-.55-3-.71-4.45-.06-.51,0-1.13-.52-1.35s-.94.29-1.31.63c-.56.52-1,1.14-1.65,1.61a2.87,2.87,0,0,0-.94,4,11.09,11.09,0,0,1-3.27,2.94,3.41,3.41,0,0,1-2.45-1c-1-.92-1.8-2-2.73-3s-2-.56-3-.57c-6.86,0-13.72,0-20.58,0a4.69,4.69,0,0,1-2.54-.23V55.81c1.21-.48,1,.39,1,1.06,0,3.12.06,6.24,0,9.36,0,1.55.46,2.13,2.07,2.11,7-.06,14-.17,21,.07,2,.07,2-2,3.48-2.18,1.33.78-.09,3.12,2.35,3.54-1.08-1.12-2.26-2.26,0-2.87,2.14-1.11,3.37-3.16,5.25-4.73-5.1-1.37-6.5-.76-6.23,2.56-.22.74-.29,1.61-1.41,1.5-.41-3-1.68-6-.9-9.17.07-.27-.45-1,0-1.29.65-.42.94.59,1.55.61a2.06,2.06,0,0,1,.34,1c.25,1,1.1.88,1.83.89,1.59,0,3.19.07,4.77,0,.28-.09.49-.35.29-.55-1.71-1.77-3.18-3.81-5.44-5-.39-.45-1.9-.69-.56-1.5.94-.58,1.79-2,3.28-1.1,1.54.19,2.25,1.51,3.29,2.4.77.65,1.31,2.2,2.29,1.81s.43-2,.56-3.07c.15-1.26-.33-2.63.66-3.74l2.62-4c.37,1.64-1.58,2.68.06,3.67,1.28,2.4.07,5.09.87,7.74,2.31-1.05,3.17-3.92,5.77-4.4l1.63,1.7c.15,1.89-1.72,2.39-2.5,3.63-.52.84-2.08,1.07-1.54,2.55,2.07-.34,4.19.76,6.19-.32.2-.72-.25-1.57.45-2.18,2,.77,2.36,1.66,1.15,3.15-.5.61-1.69,1,.16,1.36.33,0,.34,1.06.13,1.09a4.39,4.39,0,0,1-1.54-.35c-2.11,1.27-4.55.1-7,.89A16.51,16.51,0,0,0,51.68,67.26Z"/><path class="cls-1" d="M158.4,70.45a2.27,2.27,0,0,0,1.14-3.67c-2.15-2.23-2.57-4.41-1.31-7.12.15-.31-.14-.82-.22-1.24.59-.37,1.3-.24,1.93-.47a46.65,46.65,0,0,1,5.15-.18c1.19-.07,1.33-.58.58-1.45-.22-.27.09,0-.18-.18-1.38-1.08-2.22-3.52-4.08-3.11-1.63.36-1.76,2.74-2.45,4.28a3,3,0,0,1-1,1.11c-1.89-.51.73-2.05-.62-2.68,1.53-.9-.5-3.71,2.3-4.08,1.22-.16,1.37-1.9,2.44-2.69.65-.48-1.23.05-1.22-1,.64-.46,1-1.84,2.4-.8.7.53,1.15-.09,1.71-.59,2.19-2,4.39-1.89,6.48.08.48-.34,0-.76.11-1.14.2-.78.68-1.39,1.45-1,1.05.48.29,1.06-.12,1.6a2.9,2.9,0,0,0-.28,1c1.31,2.22.05,4.77.94,7.28a13.54,13.54,0,0,0,3.31-2.81c.72-.76,1.39-1.57,2.59-1.47,1.35-.59,2.25.36,3.13,1.05.55.44.14.88-.47,1-2.1,1.27-3.24,3.5-5.33,5,3.53,1.34,5.78.9,7.21-1.26,1-.56,1.39.4,1.4.85.1,3.57.69,7.27-1.68,10.43-.65.87-1.5,2-2.78,1.13-1-.7-1.1.49-1.68.59-2.09-.11-2.8-2.09-4.22-3.12-.45-.33-.8-1.08-1.49-.68-.49.29-.32.94-.34,1.44a15.85,15.85,0,0,1,0,2.07c-.32,2,.35,3.12,2.39,3.35,1.47.41,1.43.94,0,1.06-2.67.23-5.35.6-8.12,0-.16.54,2.17,2.52-1.35,1.32,5.06,1.44,9.45,2.37,13.22-1.59.19-.2,2-1.42,2.1.68C172.89,79.38,162.85,76.66,158.4,70.45Z"/><path class="cls-2" d="M41.28,28.12l3,.12c1.22.58,2.57-.15,3.8.39,14.17,1,28.37,1.58,42.56,2.24,19.2.9,38.42,1.66,57.59,3.13,5.17.39,10.33,1.06,15.49,1.6-.27,1.17-1.06.53-1.67.48-19.91-1-39.83-1.93-59.76-2.48-9.88-.26-19.76-.67-29.65-.65C63.14,33,53.89,31.16,44.55,30c-3.16-.39-6.32-.92-9.48-1.39.6-1.37,1.8-.35,2.66-.68A15.64,15.64,0,0,1,41.28,28.12Z"/><path class="cls-1" d="M96.93,63.19c-9.52-.06-19-.09-28.56-.19-3.31,0-5.21-2.6-7.55-4.35,13.26,3.67,26.86,3.46,40.38,4,.17.33.07.55-.28.66A16.66,16.66,0,0,1,96.93,63.19Z"/><path class="cls-3" d="M175.62,71.92c-2.48,1-3.27.09-2.92-2.43a38.46,38.46,0,0,0,.05-4.16c0-.57-.29-1.32.39-1.64.86-.41,1.2.46,1.66.9,1.52,1.4,3,2.84,4.5,4.27C179.14,71.16,176.72,70.75,175.62,71.92Z"/><path class="cls-3" d="M179.5,50.08c-1.42,1.37-2.81,2.77-4.26,4.1-.6.55-1,1.72-2,1.38s-.51-1.5-.53-2.31c-.07-2-.07-4.11-.09-6.17C175.46,46.91,177.89,47.56,179.5,50.08Z"/><path class="cls-3" d="M49,50.45l-5,4.8c-.36.35-.66.86-1.29.65s-.46-.84-.45-1.31c0-2.5.08-5,.12-7.48C44.83,47.79,47.47,48.05,49,50.45Z"/><path class="cls-3" d="M51.52,67.82c-.41.11-.71.85-1.19.39-2-1.87-4-3.7-5.76-5.73-1.1-1.26.17-1.23,1-1.25l7.56-.15C54.34,63.74,52.13,65.59,51.52,67.82Z"/><path class="cls-3" d="M39.72,47.48c0,2.4,0,4.81,0,7.21,0,.39.17.89-.37,1.09s-.8-.11-1.11-.42l-5.28-5.28C34.84,48.3,37,47.1,39.72,47.48Z"/><path class="cls-3" d="M184,55.86c.29,1.75-.07,2.74-2.21,2.47a38.44,38.44,0,0,0-5.15,0c-.93,0-1.45-.35-.66-1.17,1.71-1.8,3.5-3.53,5.29-5.25.3-.29.62,0,.85.3Z"/><path class="cls-3" d="M28.19,57.38l.22-1c.6-1.23,1.19-2.47,1.79-3.7.38-.33.73-.85,1.28-.31,1.78,1.77,3.55,3.53,5.31,5.32.63.65-.35.78-.44,1.2-2.21-.46-4.45-.11-6.67-.22C28.85,58.63,27.8,58.84,28.19,57.38Z"/><path class="cls-3" d="M45.76,58.86c-1.16-.52-.65-1,0-1.61,1.68-1.67,3.3-3.39,4.94-5.1,1.68.65,1.6,2.55,2.6,3.68a5.16,5.16,0,0,0,.5,2.51C51.14,59.17,48.4,58.29,45.76,58.86Z"/><path class="cls-3" d="M13.24,55.86c4.32-.18,8-1.21,10-5.71a11.27,11.27,0,0,1,5.43-5.34c.59-.27.67,0,.62.53a15,15,0,0,0-6.09,9.48c-.25,1.49-1,1.51-2.06,1.51-2.49,0-5,.06-7.46.09C13.19,56.51,13,56.35,13.24,55.86Z"/><path class="cls-4" d="M96.93,63.19l4.2-.22c1.39-.35,2.84.15,4.22-.29A97,97,0,0,1,118,63c-.65.59-1.45.22-2.18.33-2.25.1-4.51-.2-6.75.18A79.25,79.25,0,0,1,96.93,63.19Z"/><path class="cls-1" d="M154.29,52c1.13-4.25,4-6.91,7.9-8.63a.85.85,0,0,1,.57.44,20.06,20.06,0,0,0-8,8.79C154.26,52.69,154.06,52.53,154.29,52Z"/><path class="cls-2" d="M118.93,63.11l16.14.08c.18.09.24.17.18.25s-.12.13-.18.13l-16.13,0c-.18-.1-.24-.19-.18-.29S118.87,63.11,118.93,63.11Z"/><path class="cls-5" d="M201.42,62.14c-2.44.68-4.93.41-7.41.34-.42-.13-.69-.36-.51-.85h2.56C197.81,62.22,199.7,61.31,201.42,62.14Z"/><path class="cls-1" d="M51.86,73.12a2,2,0,0,1-.07.43,2.54,2.54,0,0,1-3.1,1.68l-.12-1.17c-.27-.39-.34-.75.16-1a.82.82,0,0,0,.38,0Z"/><path class="cls-3" d="M29.3,45.34l-.62-.53A7.86,7.86,0,0,1,34,42.89Z"/><path class="cls-6" d="M201.42,62.14c-1.76-.37-3.64.41-5.36-.51h8l0,.36Z"/><path class="cls-7" d="M109.06,63.54c2.24-.82,4.53-.27,6.8-.25l0,.25Z"/><path class="cls-8" d="M162,36.08l1.67-.48,3.12.43C165.23,37.06,163.63,36.41,162,36.08Z"/><path class="cls-3" d="M143.28,63.34c1.25-.29,2.13-.45,3,.5A3,3,0,0,1,143.28,63.34Z"/><path class="cls-3" d="M167.31,36c1.12-.32,2.05.41,3.08.58C169.19,37.28,168.1,37.4,167.31,36Z"/><path class="cls-9" d="M105.35,62.68c-1.36.76-2.81.3-4.22.29a1,1,0,0,0,.07-.3Z"/><path class="cls-1" d="M193.5,61.63l.51.85a2,2,0,0,1-2.23-.7A1.94,1.94,0,0,1,193.5,61.63Z"/><path class="cls-10" d="M135.07,63.57v-.38h3.64c.18.08.24.17.18.26s-.11.14-.18.14Z"/><path class="cls-11" d="M115.81,63.54l0-.25L118,63l.94.08a2,2,0,0,1,0,.43Z"/><path class="cls-3" d="M138.71,63.59v-.4a5.53,5.53,0,0,1,3,.22A5.07,5.07,0,0,1,138.71,63.59Z"/><path class="cls-2" d="M34.5,27.75l-1.07.47-2-.11.48-.45Z"/><path class="cls-12" d="M162.76,43.85l-.57-.44a3.53,3.53,0,0,1,2.06-.66c.16.11.21.22.16.33s-.11.17-.16.17Z"/><path class="cls-13" d="M154.29,52l.45.6L154,54.49C153.75,53.37,153.57,52.63,154.29,52Z"/><path class="cls-14" d="M165.8,42.2c.53-.43,1.13-.77,1.64-.13.09.12-.62.66-1.16.67C166.13,42.55,165.8,42.52,165.8,42.2Z"/><path class="cls-1" d="M165.8,42.2l.48.54-2,.51a4.17,4.17,0,0,0,0-.5C164.59,42.08,165.25,42.29,165.8,42.2Z"/><path class="cls-15" d="M225.74,74.63l-3.56.51c-2.54.24-2.54.24-1.55-2.83.35-1.3,0-2.67.24-4-.33,1.08.31,2.31-.45,3.33a17.73,17.73,0,0,1-7.09-1.29c.28-10,.5-20.09.89-30.12a11.57,11.57,0,0,0-1.84-7.32c-1.23-1.84-2.17-3.87-3.35-6l-2.53,2.95a3.89,3.89,0,0,1-2.09-4.5c.49-2.86-.06-5.78-.16-8.67.45-1.58.27-2.59-1.66-3.16-1.36-.4-2.94-.81-3.78-2.4-.59-1.13-1.25-.31-1.76.31-1,1.17-2,2.2-3.68,1.66-.15-1,.46-1.56.86-2.18a3.93,3.93,0,0,0,.58-4c-.92-2.32.66-5.07,3.25-6.35,2.35-1.15,4.22-.45,6,1.39,2,2.07,4.08,4,4.56,7,0,.3.58.64.95.74A18.48,18.48,0,0,1,220,17.79c4.82,7.33,7.75,15.29,7.8,24.27.06,10.14-.17,20.29.61,30.42a1.13,1.13,0,0,1,.14,1,3,3,0,0,1-2.15,1.28A1.06,1.06,0,0,1,225.74,74.63Z"/><path class="cls-16" d="M204.25,16.69c.53-.08,1.26-.56.93.67-.84,3.19.73,6.46-.39,9.68-.45,1.33,2,1.33,1.71,2.82a26.69,26.69,0,0,1-10,8.75c-3.25-1.23-6.49,1.16-9.75,0-.38-.13-.93-.06-.83-.64,0-.19.54-.31.83-.46,3.56,0,6.23-1.9,8.8-4a25.63,25.63,0,0,0,6.24-6.8c-3.93,2.73-8.35,4.38-12.79,5.92-1.33.46-1.64,2.4-3.36,2a1.06,1.06,0,0,0-1-.63c-1-2-.27-3.23,1.59-4.17q5.06-2.55,10.05-5.23A19.48,19.48,0,0,0,204.25,16.69Z"/><path class="cls-15" d="M218.42,74.56c.55-.53,1.19-1.07-.29-1.07-2.83,0-5.67,0-8.51,0a.59.59,0,0,1,0-1c.87-1.36,2.89-.69,3.73-2.12a17.67,17.67,0,0,1,7.13,1c.42.26.52.85,1,1-.37.83-.75,1.65-1.15,2.53l1.82.21a3.68,3.68,0,0,1-3.7-.06c-.19-.1-.27-.2-.22-.33S218.36,74.56,218.42,74.56Z"/><path class="cls-17" d="M220.48,58.46c-.14,2.47,1.23,4.92,0,8.07-.73-3.09-.42-5.58-.4-8.06C220.21,58.19,220.34,58.18,220.48,58.46Z"/><path class="cls-18" d="M220.48,58.46h-.2l-.21,0a3.59,3.59,0,0,1,.2-2.21A3.56,3.56,0,0,1,220.48,58.46Z"/><path class="cls-3" d="M85,12.56c.61-1.21,1.7-.58,2.53-.55,6.31.28,12.62.65,18.92,1l2.42.14c1.06.49,2.24-.05,3.31.39,2.42,0,3.6,1,3.91,3.59a85.58,85.58,0,0,0,2.17,10.34c.34,1.39.13,1.85-1.38,1.77Q102.44,28.45,88,27.8c-1.17-.06-1.34-.55-1.45-1.58C86.11,21.66,85.52,17.11,85,12.56Z"/><path class="cls-3" d="M50.22,26.08c7.67-9.91,17.52-15.11,30.28-14,.3,0,.58.33.86.51a93.46,93.46,0,0,0,1,12.16c.25,2,.25,3.05-2.5,2.86C70,26.89,60.1,26.56,50.22,26.08Z"/><path class="cls-3" d="M143.19,30.4q-10.27-.55-20.55-1.11c-.7,0-1-.26-1.15-1-.9-4.51-1.89-9-2.94-13.93L143.27,30Z"/><path class="cls-1" d="M31.41,74.52a1.9,1.9,0,0,1,0-.41c.83-1.2,1.57-2.5,3.23-2.69a1.15,1.15,0,0,1,1-.29c1,.17,2,.84,3,.5.55-.26.6-1,1.1-1.24,1.51.89,2.09.5,2.14-1.28s-.55-3.39.44-5c.89,1,.76,2.25.73,3.43a11.23,11.23,0,0,0,.87,5c-.81,2.14-2,2.73-4.32,1.77-1.74-.73-3.74-.59-4.56,1.78Z"/><path class="cls-3" d="M39.75,70.21c-.35.72.46,1.76-.54,2.29-.87-1.77-2.28-1.4-3.67-1.1l-.94-.07c-2.26-1.39-1.72-2.67,0-4.14a44.66,44.66,0,0,0,3.11-3.32c.39-.41.71-1.16,1.47-.68.52.33.5.89.51,1.46C39.7,66.5,39.73,68.36,39.75,70.21Z"/><path class="cls-3" d="M28.79,64.66c-.93-3.42-.93-3.43,2.69-3.43l4.9,0c.06,0,.13.1.56.46-2.47,1.67-3.51,4.78-6.71,5.57C29.12,66.76,29.12,65.62,28.79,64.66Z"/><path class="cls-3" d="M43.93,72.57c-1.25.1-1.63-.51-1.59-1.71.06-2.24,0-4.48,0-6.72,2.93.9,4.27,3.67,6.4,5.51.37.32-.42.87-.83,1.08C46.6,71.39,45.25,72,43.93,72.57Z"/><path class="cls-14" d="M28.79,64.66l1.44,2.63c-1,.45-1.51.88-.08,1.48.49.21,1.4.44.71,1.24a1.37,1.37,0,0,1-2,.23c-1.56-1.09-.6-2.72-1.09-4Z"/><path class="cls-3" d="M42.68,60c-.18.87-.58,1.67-1.78,1.65a1.66,1.66,0,0,1-.25-3.3C41.76,58.18,42.45,58.71,42.68,60Z"/><path class="cls-14" d="M48.73,73.05c0,.33-.11.67-.16,1-.45,0-.72,1.21-1.09.48S48,73.32,48.73,73.05Z"/><path class="cls-3" d="M158.59,57.37c.43-2.1.94-4.74,2.71-5.47,1.45-.6,2.65,2,4,3.21.83.76,2.53,1.49,2,2.68s-2.17.32-3.32.44c-1.46.16-2.94.13-4.41.18C158.77,58.51,158.34,58.25,158.59,57.37Z"/><path class="cls-3" d="M169.86,72.44c-2.52.31-4.14-1.49-6-2.62-1.08-.66-.06-1.15.34-1.56,1.7-1.72,3.44-3.41,5.16-5.1.34.1.75.29.76.62C170.18,66.67,170.64,69.58,169.86,72.44Z"/><path class="cls-3" d="M170.46,54.92c-.68.94-1.21.5-1.81-.13-1.3-1.36-2.58-2.76-4-4-1.65-1.41-.89-2.15.58-2.76,1-.44,2.13-.77,3.2-1.15,1.41-.55,1.81.07,1.83,1.42C170.3,50.52,170,52.74,170.46,54.92Z"/><path class="cls-3" d="M184.14,62.58c-2.5,5.17-2.49,5.16-6.67,1-.54-.54-1.15-1-1.72-1.52-.51-.94,0-1.23.83-1.28,2.21-.15,4.41,0,6.61,0C184.51,60.78,184.39,61.68,184.14,62.58Z"/><path class="cls-3" d="M167.37,61.54a61.79,61.79,0,0,0-4.77,4.66c-1.34,1.6-2.1.88-2.64-.42a43.69,43.69,0,0,1-1.38-4.52C161.53,60.64,164.48,60.05,167.37,61.54Z"/><path class="cls-3" d="M173.18,59.32c0,1.45-.82,1.92-1.82,1.9a1.49,1.49,0,0,1-1.5-1.7c0-1,.49-1.62,1.54-1.64S173.14,58.41,173.18,59.32Z"/><path class="cls-1" d="M184.14,62.58c-.22-.6.5-1.69-.89-1.68-2.32,0-4.65,0-7,0-.76,0-.63.64-.52,1.16-1.14-.77-1.57-1.45.31-1.55,2.46-.12,4.94-.27,7.4-.15C185.08,60.44,184.72,61.58,184.14,62.58Z"/><path class="cls-1" d="M167.37,61.54c-2.89-1.28-5.84-.67-8.79-.28,2.91-1.47,5.94-.9,8.95-.53C167.84,60.77,167.69,61.3,167.37,61.54Z"/><path class="cls-1" d="M170.46,54.92c-.68-2.1-.28-4.26-.24-6.39,0-1.5-.57-1.76-1.79-1.63,1.21-1.07,2-1,2.07.8C170.55,50.11,170.48,52.52,170.46,54.92Z"/><path class="cls-1" d="M169.86,72.44c.2-3.11,1.12-6.27-.53-9.28.31.11.88.2.89.34C170.47,66.49,171.17,69.51,169.86,72.44Z"/><path class="cls-1" d="M162.4,72.68c.12-1.42-2-1.12-1.73-2.43a1.16,1.16,0,0,1,1.75-.35C163.63,70.79,162.7,71.69,162.4,72.68Z"/><path class="cls-1" d="M158.59,57.37c.23.44.43.9,1,1-.52.84-1,.14-1.56,0A1,1,0,0,1,158.59,57.37Z"/><path class="cls-14" d="M165.58,73c.11.1.43.28.4.36a3.84,3.84,0,0,1-.45.78,3.37,3.37,0,0,1-.4-.61C165,73.29,165.2,73.13,165.58,73Z"/><path class="cls-14" d="M35.54,71.48c2.59-1.77,3.36-1.56,3.67,1A5.25,5.25,0,0,1,35.54,71.48Z"/></svg>