<svg xmlns="http://www.w3.org/2000/svg" viewBox="0 0 158.29 159.84"><defs><style>.cls-1{fill:#fff;}.cls-2{fill:#49ab34;stroke:#fff;stroke-miterlimit:10;}</style></defs><title>hand-car.svg</title><g id="Capa_2" data-name="Capa 2"><g id="Capa_1-2" data-name="Capa 1"><path class="cls-1" d="M105,115.09l-2.49-3c13.86-11.6,24.93-16.45,32.9-14.43a11.15,11.15,0,0,1,7.57,6.09l-3.61,1.43v0a7.26,7.26,0,0,0-5-3.8C129.77,100.3,121,101.77,105,115.09Z"/><path class="cls-1" d="M81.52,159.84A17.79,17.79,0,0,1,73,157.4c-2.47-1.28-8.07-4-14-6.84-8.43-4.07-18-8.69-21.53-10.64-3-1.64-11.35,3.79-16.91,8.57a1.94,1.94,0,0,1-2.69-.15h0a2,2,0,0,1,.17-2.79,77.51,77.51,0,0,1,6.75-5.13c6.56-4.39,11.32-5.66,14.54-3.9,3.47,1.91,13,6.5,21.35,10.54,6,2.88,11.57,5.59,14.09,6.89,5,2.61,8.8,3.81,22-3.83,11.35-6.58,44.83-29.27,54.83-36.07a6.24,6.24,0,0,0,2.77-5.51c-.07-1.13-.28-4.57-8.24-4.22a6.26,6.26,0,0,0-2.9.86l-33.15,19.39a1.93,1.93,0,0,1-2.64-.69h0a1.92,1.92,0,0,1,.7-2.64l33.14-19.4a10.18,10.18,0,0,1,4.7-1.39c10.22-.43,12.08,4.73,12.27,7.85a10.13,10.13,0,0,1-4.46,9c-10,6.81-43.61,29.57-55.07,36.21-6.72,3.9-11.48,5.83-15.45,6.27C82.68,159.8,82.09,159.84,81.52,159.84Z"/><path class="cls-1" d="M79.64,132.15A73.75,73.75,0,0,1,56.81,129a1.94,1.94,0,0,1-1.3-2.45h0a1.93,1.93,0,0,1,2.4-1.27c10.73,3.16,17.42,3.06,27.28,2.91,2.3,0,4.68-.07,7.35-.07,6.44,0,10.54-1.1,12.18-3.28,1.12-1.48,1.21-3.65.3-6.85s-4.25-3.43-11.76-3.77a114.68,114.68,0,0,1-12.26-1c-8.41-1.27-10.69-3.34-13.84-6.2a48.15,48.15,0,0,0-12.71-8.52c-6.4-3.16-17.56-1.91-32.27,3.62a168.18,168.18,0,0,0-19.32,8.8,1.94,1.94,0,0,1-2.6-.75h0A1.94,1.94,0,0,1,1,107.47a170.65,170.65,0,0,1,19.74-9c16-6,27.91-7.19,35.41-3.49a51.9,51.9,0,0,1,13.59,9.13c2.94,2.67,4.57,4.14,11.82,5.23a110.11,110.11,0,0,0,11.86,1c7.6.35,13.61.63,15.31,6.58,1.26,4.41,1,7.76-.93,10.26-2.45,3.24-7.45,4.82-15.28,4.82-2.64,0-5,0-7.29.07C83.29,132.12,81.44,132.15,79.64,132.15Z"/><path class="cls-1" d="M44.69,54.71s-2,1.49-2.54,13.77,1.4,15.26,2.54,15.65S52,86,52.75,82.25a54.38,54.38,0,0,0,1-7.29"/><path class="cls-1" d="M124.27,54.71s2.78,2.81,1.89,22.9c0,0,.7,7-4.85,7.15s-5.53-2.76-6.38-9.52"/><path class="cls-1" d="M127.55,22.22c-2.18-3.57-8.42-1.88-8.42-1.88s.59,3.56.3,3.66-3.17.3-3.67-1.19-4-18.42-8.32-20.7h-2.68s.4-4.16-3.07-.6c0,0-28.73-.69-35.36.2,0,0-2-4.16-3.17.5,0,0-3.27-1.09-5,2.77s-5.45,17.93-5.45,17.93-3.17,2.87-3.76.6.4-2.88.4-2.88-9.32-.89-9.32,4.36c0,0,1.39,2.38,5.16,2.38H49s3.47-.79,2.68,1-5.26,7.83-6.15,11.89.2,6.34.2,6.34a23.71,23.71,0,0,0-1,6.54c-.1,4-.79,19.41,4,20.9S94.76,80,110,76c0,0,13.58-1.09,14-6.74s.89-20.11-1.09-22.68c0,0,1.09-7-2.08-11.69s-4.06-5.35-4-7.33l2.87-.89a11.45,11.45,0,0,0,4.62,0C127.25,26.18,129.73,25.78,127.55,22.22ZM51.6,48.7c-4.1-4.89,2.15-8.85,2.15-8.85C63.84,43,55.69,53.59,51.6,48.7Zm57.06,5.15c-4.83,6.07-47.29,4-48.34,0s5.15-9.51,5.15-9.51,35.93-.79,39.62.57S108.66,53.85,108.66,53.85Zm1.16-27.75s-48.15-.32-51.07,0-2.33-2.28-2.33-2.28C58.2,12,61.08,7.56,61.08,7.56c1.09-2.24,14.46-1.39,14.46-1.39s24.77-.1,29.62.59,6.54,14.57,6.94,17.34S109.82,26.1,109.82,26.1Zm2.31,20.64c-4.1-4.89,2.15-8.85,2.15-8.85C124.36,41.06,116.22,51.63,112.13,46.74Z"/><polygon class="cls-2" points="89.77 67.64 89.77 70.02 85.06 70.02 85.06 74.73 82.68 74.73 82.68 70.02 77.97 70.02 77.97 67.64 82.68 67.64 82.68 62.94 85.06 62.94 85.06 67.64 89.77 67.64"/></g></g></svg>