<svg xmlns="http://www.w3.org/2000/svg" viewBox="0 0 134.55 134.85"><defs><style>.cls-1{fill:#fff;}</style></defs><title>car-electric</title><g id="Capa_2" data-name="Capa 2"><g id="Capa_1-2" data-name="Capa 1"><path class="cls-1" d="M116.72,82.1l-7.86.1c-.82-.42-1.72-.07-2.56-.27l0-.06a3.72,3.72,0,0,0-.32-2.13,2.1,2.1,0,0,0-.47-1.65.91.91,0,0,0-.37-.92.39.39,0,0,0-.14-.35l-.3-.43h0a.83.83,0,0,0-.44-.8l-.38-.45-.44-.43h0L103,74.3h0l-.43-.45-.47-.36a3.65,3.65,0,0,0-2.45-1.3,2.5,2.5,0,0,0-1.87-.46l-.64-.23-.85-.07a4.85,4.85,0,0,0-3.12.31l-1.05.15a2.73,2.73,0,0,0-1.73.73l-.78.45A2.63,2.63,0,0,0,88,74.34h0a4.83,4.83,0,0,0-1.9,2.5,1.86,1.86,0,0,0-.5,1.25l-.11.41a1.36,1.36,0,0,0-.34,1.26l0,.4-.12,1.48-1.19.58c-9.88-.36-19.76-.32-29.64,0a2.63,2.63,0,0,0-2.11,0l-.85-.32c0-3.23-.93-6-3.69-8h0a3.17,3.17,0,0,0-1.73-1.2,1.92,1.92,0,0,0-1.43-.51l-.65-.28L43,71.76a.93.93,0,0,0-1-.25,8.78,8.78,0,0,0-3.35,0,.8.8,0,0,0-.86.22,2.51,2.51,0,0,0-1.66.54.79.79,0,0,0-.83.36l-.4.17A6.17,6.17,0,0,0,31.52,76a.13.13,0,0,0-.06.2l-.37.64h0a.83.83,0,0,0-.4.85.18.18,0,0,0-.07.24l-.27.58A3.18,3.18,0,0,0,30,80.2c-.25.64,0,1.41-.56,2L18.11,82A4,4,0,0,1,15,78.85a23.49,23.49,0,0,1-.22-3.26c.12-1.12.25-2.25.37-3.37,0-.27,0-.54.07-.82.59-1.84.76-3.83,1.82-5.52a12.78,12.78,0,0,1,9-6.22,37.62,37.62,0,0,0,22.2-11.84c7-7.38,15.78-10.74,25.78-11,6.33-.2,12.7-.52,19,.13,9.79,1,16.5,6.77,21.33,15a40.8,40.8,0,0,1,4.56,11.16,2,2,0,0,0,2.43,1.83c2.29-.12,4.59-.06,6.89,0,1.06,0,1.46-.25,1.33-1.44-3-26.84-17-45.57-42.28-54.73C51.3-4.31,11.5,20.16,6,57.94c-4.84,33.32,16.66,64,49.51,70.44a61.36,61.36,0,0,0,40.19-5.56,1.68,1.68,0,0,0,1.07-2.38,6.58,6.58,0,0,1,3.18-7.68c1.24-.78,2.52-1.49,3.79-2.21,1.94-1.12,3.86-1.78,5.55.42.52.67,1,.2,1.43-.06q2.2-1.2,4.4-2.41c.91-.51,1.79-.58,2.31.46s-.2,1.58-1,2q-2.1,1.19-4.21,2.31c-.9.47-1.11,1-.6,2,1.88,3.75,1.84,3.78,5.43,1.74.73-.41,1.44-.85,2.18-1.24s1.64-.57,2.18.35,0,1.69-.88,2.19-1.81,1-2.73,1.54c-1.38.76-3.15,1.18-2.1,3.52.3.68-.31,1.66-1,2.18-2.41,1.78-4.88,3.47-7.89,4.08a5.87,5.87,0,0,1-5.89-1.85c-1-1.13-1.7-.85-2.79-.31a67.45,67.45,0,0,1-94-36.88C-5.57,63.63,2.09,34.21,23.93,15.79,37.93,4,54.23-1.1,72.52.2c29.61,2.09,55.22,24.35,60.89,55,.23,1.23.42,2.46.62,3.7a3,3,0,0,0,.29,2.07c0,.56.05,1.12.08,1.68l.06,1.21.09,4.19a2.82,2.82,0,0,0,0,1.7l-.21.75-.82.08H121c-.73-.14-1.24,0-1.28.88-.08,2.09-.18,4.16-.27,6.24,0,.42-.11.83-.16,1.24A6.37,6.37,0,0,1,116.72,82.1Z"/><path class="cls-1" d="M89.52,76.38l.89-.88,3.38-1.61,2.08-.11,1.27.11h0l.13.14.17-.05,2.69,1.14a.81.81,0,0,0,.73.49l0,0,.41.52.33.35.93,1.25h0a.91.91,0,0,0,.42.82L103.5,81v.86c-.05.68-.09,1.37-.14,2.06a3.34,3.34,0,0,0-.73,1.69.31.31,0,0,0-.12.28c-.12.19-.25.37-.37.55l-.8.94-.86.74c-2.88,1.92-5.89,2.3-9,.55s-4.14-4.63-4-8l.12-.38c.06-.3.12-.61.17-.91l.09-.41a.23.23,0,0,0,.09-.26Z"/><path class="cls-1" d="M37.43,89.22l-.83-.29a2,2,0,0,0-1.27-.87v0l-.46-.4h0l-.42-.45-.34-.42a19.33,19.33,0,0,1-1.72-4.15l.35-3.34.77-1.67,2.21-2.44,1.37-.81a.3.3,0,0,0,.28-.12,1.58,1.58,0,0,0,1.25-.39l3.75,0,2.09.83h0a1.76,1.76,0,0,0,1.27.82h0l.41.44h0c2.73,3.41,2.9,7,.75,10.74l.08.09-.07-.1a1.09,1.09,0,0,0-.8.9h0l-1.78,1.25a11.13,11.13,0,0,1-5.53.83,1.18,1.18,0,0,0-1-.29l-.08,0Q37.66,89.16,37.43,89.22Z"/><path class="cls-1" d="M15.2,71.4c0,.28,0,.55-.07.82C14.76,71.91,14.8,71.64,15.2,71.4Z"/><path class="cls-1" d="M43.65,71.87l.65.28Z"/><path class="cls-1" d="M31.09,76.83l.37-.64Z"/><path class="cls-1" d="M30.36,78.49l.27-.58Z"/><path class="cls-1" d="M85.45,78.51l.11-.41a1.77,1.77,0,0,1,0,.32S85.51,78.48,85.45,78.51Z"/><path class="cls-1" d="M87.92,78.92l-.09.41a1.88,1.88,0,0,1-.06-.31S87.87,79,87.92,78.92Z"/><path class="cls-1" d="M46.14,76l-.41-.44Z"/><path class="cls-1" d="M85.06,80.17l0-.4a1.71,1.71,0,0,1,.09.3S85.11,80.14,85.06,80.17Z"/><path class="cls-1" d="M87.66,80.24l-.12.38A.53.53,0,0,1,87.66,80.24Z"/><path class="cls-1" d="M102.15,86.44c.12-.18.25-.36.37-.55C102.4,86.08,102.27,86.26,102.15,86.44Z"/><path class="cls-1" d="M34.88,87.69l.46.4Z"/><path class="cls-1" d="M34.46,87.24l.42.45Z"/><path class="cls-1" d="M103.86,75.15c-.14-.15-.29-.29-.44-.43C103.57,74.86,103.72,75,103.86,75.15Z"/><path class="cls-1" d="M103.43,74.73c-.14-.14-.29-.28-.43-.43C103.14,74.45,103.29,74.59,103.43,74.73Z"/><path class="cls-1" d="M103,74.31l-.43-.45Z"/><path class="cls-1" d="M97.79,71.74l-.64-.23Z"/><path class="cls-1" d="M105,76.82l-.3-.43Z"/><path class="cls-1" d="M100.86,75.6l.41.52Z"/><path class="cls-1" d="M97.16,73.9a.75.75,0,0,1,.3.09l-.17.05Z"/></g></g></svg>