<svg xmlns="http://www.w3.org/2000/svg" viewBox="0 0 151.94 118.4"><defs><style>.cls-1{fill:#fff;}.cls-2{fill:#4fad33;}</style></defs><title>hand-car-check</title><g id="Capa_2" data-name="Capa 2"><g id="Capa_1-2" data-name="Capa 1"><path class="cls-1" d="M52,30.2s-1.24.9-1.54,8.36.85,9.25,1.54,9.49,4.42,1.15,4.9-1.14a33.31,33.31,0,0,0,.6-4.42"/><path class="cls-1" d="M99.18,30.2s1.68,1.7,1.14,13.9c0,0,.42,4.23-2.94,4.33S94,46.76,93.51,42.66"/><path class="cls-1" d="M102.26,13.48c-1.32-2.16-5.11-1.14-5.11-1.14a9,9,0,0,1,.18,2.22c-.18.06-1.93.18-2.23-.72s-2.4-11.18-5-12.56H88.43s.24-2.53-1.86-.36c0,0-17.44-.42-21.46.12,0,0-1.21-2.53-1.93.3a2.46,2.46,0,0,0-3,1.68c-1,2.35-3.31,10.88-3.31,10.88s-1.92,1.75-2.28.36.24-1.74.24-1.74-5.65-.54-5.65,2.65a3.54,3.54,0,0,0,3.12,1.44h2.29s2.1-.48,1.62.6S53,22,52.48,24.42a6.37,6.37,0,0,0,.12,3.85,14.38,14.38,0,0,0-.6,4c-.06,2.4-.48,11.78,2.41,12.68s28,3.61,37.21,1.21c0,0,8.23-.67,8.47-4.09s.55-12.21-.66-13.77c0,0,.66-4.27-1.26-7.09s-2.46-3.25-2.4-4.45l1.74-.54a6.86,6.86,0,0,0,2.8,0C102.08,15.89,103.58,15.65,102.26,13.48ZM56.17,29.55c-2.49-3,1.31-5.37,1.31-5.37C63.59,26.11,58.65,32.52,56.17,29.55ZM90.8,32.68c-2.94,3.68-28.7,2.4-29.34,0s3.13-5.77,3.13-5.77,21.8-.48,24,.34S90.8,32.68,90.8,32.68Zm.7-16.84s-29.22-.19-31,0-1.42-1.39-1.42-1.39c1.09-7.15,2.83-9.86,2.83-9.86.66-1.35,8.78-.84,8.78-.84s15-.06,18,.36,4,8.84,4.21,10.52S91.5,15.84,91.5,15.84Zm1.4,12.52c-2.49-3,1.31-5.37,1.31-5.37C100.32,24.92,95.38,31.33,92.9,28.36Z"/><path class="cls-2" d="M81.59,36.79a1.79,1.79,0,0,0-2.7,0c-.89.86-1.8,1.69-2.7,2.53-.51.48-1,1-1.54,1.42a.43.43,0,0,1-.51.11l-1.39-1.14a1.69,1.69,0,1,0-2.15,2.61l1.18,1c.2.33.55.5.81.76s.5.42.76.62a1.8,1.8,0,0,0,2.34-.07c.68-.58,1.31-1.21,2-1.8.49-.45,1-.91,1.45-1.35.81-.73,1.6-1.48,2.4-2.22A1.85,1.85,0,0,0,81.59,36.79Zm-.86,1.5a1,1,0,0,1-.22.24L75,43.62c-.42.39-.63.39-1.07,0l-.57-.49a4.6,4.6,0,0,1-.73-.59h0c-.46-.38-.94-.74-1.4-1.13a.55.55,0,1,1,.7-.86c.48.38.94.79,1.4,1.19h0l.91.69a.83.83,0,0,0,.7-.29l4.69-4.38a2.08,2.08,0,0,1,.32-.27.51.51,0,0,1,.68.09A.52.52,0,0,1,80.73,38.29Z"/><path class="cls-1" d="M100.81,75.45l-2.39-2.86C111.73,61.46,122.35,56.8,130,58.75a10.67,10.67,0,0,1,7.27,5.84L133.8,66v0A7,7,0,0,0,129,62.33C124.56,61.26,116.09,62.67,100.81,75.45Z"/><path class="cls-1" d="M78.25,118.4a17.06,17.06,0,0,1-8.15-2.34c-2.38-1.22-7.75-3.82-13.43-6.56-8.09-3.91-17.26-8.34-20.67-10.21-2.88-1.58-10.89,3.63-16.23,8.22a1.85,1.85,0,0,1-2.58-.15h0a1.85,1.85,0,0,1,.17-2.67,72.91,72.91,0,0,1,6.47-4.93c6.3-4.21,10.87-5.43,14-3.73,3.33,1.82,12.45,6.23,20.5,10.11,5.7,2.76,11.1,5.37,13.52,6.61,4.84,2.5,8.45,3.66,21.1-3.67,10.89-6.32,43-28.1,52.63-34.62a6,6,0,0,0,2.66-5.3c-.06-1.08-.27-4.38-7.91-4a6.07,6.07,0,0,0-2.79.83L105.69,84.56a1.86,1.86,0,0,1-2.54-.67h0a1.86,1.86,0,0,1,.66-2.54l31.81-18.61a9.81,9.81,0,0,1,4.51-1.34c9.82-.41,11.6,4.54,11.79,7.54a9.74,9.74,0,0,1-4.29,8.6c-9.62,6.55-41.85,28.39-52.85,34.77-6.45,3.74-11,5.59-14.83,6A16.72,16.72,0,0,1,78.25,118.4Z"/><path class="cls-1" d="M76.44,91.83a70.58,70.58,0,0,1-21.91-3,1.86,1.86,0,0,1-1.25-2.35h0a1.86,1.86,0,0,1,2.3-1.22c10.3,3,16.73,2.94,26.19,2.8,2.21,0,4.49-.07,7-.07,6.19,0,10.12-1.06,11.7-3.15,1.07-1.42,1.16-3.51.28-6.57S96.72,75,89.52,74.64a109.67,109.67,0,0,1-11.77-1c-8.08-1.22-10.26-3.2-13.29-5.95a46.27,46.27,0,0,0-12.2-8.18c-6.14-3-16.85-1.83-31,3.48A162.79,162.79,0,0,0,2.74,71.42,1.85,1.85,0,0,1,.25,70.7h0A1.87,1.87,0,0,1,1,68.14a162.32,162.32,0,0,1,19-8.63c15.35-5.78,26.79-6.9,34-3.35a50,50,0,0,1,13,8.76c2.82,2.57,4.38,4,11.34,5a108,108,0,0,0,11.39,1c7.3.33,13.06.6,14.69,6.31,1.21,4.23.92,7.45-.89,9.85-2.35,3.11-7.15,4.62-14.67,4.62-2.53,0-4.8,0-7,.07C80,91.8,78.17,91.83,76.44,91.83Z"/></g></g></svg>