<svg id="Capa_1" data-name="Capa 1" xmlns="http://www.w3.org/2000/svg" viewBox="0 0 325.05 325.05"><defs><style>.cls-1{fill:#fff;}.cls-2{fill:#50ac32;}</style></defs><title>icon</title><circle class="cls-1" cx="162.52" cy="162.52" r="162.52"/><path class="cls-2" d="M126.36,126.77s-1.93,1.41-2.4,13,1.33,14.45,2.4,14.82,6.89,1.79,7.64-1.78A53.55,53.55,0,0,0,135,146"/><path class="cls-2" d="M201.74,126.77s2.63,2.66,1.79,21.7c0,0,.65,6.6-4.6,6.76s-5.23-2.61-6-9"/><path class="cls-2" d="M204.84,96c-2.06-3.38-8-1.78-8-1.78s.57,3.38.29,3.47-3,.28-3.48-1.13S189.92,79.11,185.79,77h-2.53s.37-3.94-2.91-.56c0,0-27.21-.66-33.5.19,0,0-1.87-3.94-3,.47,0,0-3.09-1-4.69,2.63s-5.16,17-5.16,17-3,2.72-3.56.56.37-2.72.37-2.72S122,93.66,122,98.63c0,0,1.31,2.25,4.88,2.25h3.57s3.28-.75,2.53.94-5,7.41-5.82,11.26.19,6,.19,6a22.25,22.25,0,0,0-.94,6.2c-.09,3.75-.75,18.39,3.75,19.79s43.63,5.63,58.08,1.88c0,0,12.86-1,13.23-6.38s.85-19-1-21.49c0,0,1-6.66-2-11.07s-3.85-5.07-3.75-6.94l2.72-.85a10.67,10.67,0,0,0,4.37,0C204.56,99.75,206.9,99.38,204.84,96Zm-71.93,25.08c-3.88-4.62,2-8.38,2-8.38C144.49,115.7,136.78,125.71,132.91,121.08ZM187,126c-4.58,5.75-44.79,3.76-45.79,0s4.88-9,4.88-9,34-.75,37.53.54S187,126,187,126ZM188,99.68s-45.59-.3-48.36,0-2.21-2.16-2.21-2.16c1.69-11.16,4.41-15.38,4.41-15.38,1-2.12,13.7-1.32,13.7-1.32s23.46-.09,28,.56,6.2,13.8,6.57,16.42S188,99.68,188,99.68Zm2.19,19.55c-3.88-4.63,2-8.39,2-8.39C201.82,113.85,194.11,123.85,190.23,119.23Z"/><path class="cls-1" d="M171.83,132.38a3,3,0,0,0-1.91-.92,3.17,3.17,0,0,0-2.3,1c-1.38,1.34-2.81,2.63-4.22,3.95-.79.75-1.56,1.52-2.4,2.21-.25.21-.47.34-.79.18L158.05,137a2.65,2.65,0,1,0-3.37,4.07l1.84,1.54c.31.51.86.77,1.27,1.19s.78.65,1.18,1a2.83,2.83,0,0,0,3.66-.11c1.05-.91,2-1.89,3.06-2.82.77-.69,1.51-1.41,2.28-2.1,1.26-1.14,2.49-2.32,3.74-3.47A2.87,2.87,0,0,0,171.83,132.38Zm-1.33,2.33a2.17,2.17,0,0,1-.35.39L161.59,143c-.65.6-1,.61-1.67,0l-.88-.76a7.24,7.24,0,0,1-1.14-.93h0c-.73-.58-1.47-1.15-2.19-1.75a.86.86,0,0,1-.15-1.25.85.85,0,0,1,1.25-.1c.74.6,1.46,1.23,2.18,1.85h0l1.42,1.09a1.26,1.26,0,0,0,1.08-.46l7.34-6.84a3.23,3.23,0,0,1,.49-.41.8.8,0,0,1,1.07.13A.84.84,0,0,1,170.5,134.71Z"/><path class="cls-2" d="M194.24,192.72l-3.72-4.46c20.77-17.37,37.35-24.65,49.28-21.61a16.63,16.63,0,0,1,11.34,9.12l-5.4,2.13v0a10.88,10.88,0,0,0-7.54-5.69C231.32,170.57,218.09,172.77,194.24,192.72Z"/><path class="cls-2" d="M159,259.75c-4.62,0-8.4-1.42-12.72-3.65-3.71-1.91-12.09-6-21-10.25-12.63-6.09-26.93-13-32.26-15.92-4.49-2.47-17,5.67-25.33,12.83a2.89,2.89,0,0,1-4-.23h0a2.9,2.9,0,0,1,.25-4.17,112.86,112.86,0,0,1,10.11-7.69c9.83-6.58,17-8.48,21.78-5.84,5.2,2.85,19.43,9.73,32,15.79,8.91,4.31,17.33,8.37,21.11,10.32,7.55,3.9,13.19,5.71,32.94-5.74,17-9.86,67.16-43.85,82.13-54a9.4,9.4,0,0,0,4.17-8.26c-.11-1.69-.43-6.84-12.35-6.33a9.53,9.53,0,0,0-4.35,1.3l-49.66,29.05a2.89,2.89,0,0,1-4-1h0a2.91,2.91,0,0,1,1-4l49.65-29a15.43,15.43,0,0,1,7-2.08c15.32-.65,18.1,7.09,18.39,11.76A15.19,15.19,0,0,1,267.32,196c-15,10.21-65.32,44.3-82.49,54.26-10.07,5.83-17.2,8.72-23.14,9.38A24.6,24.6,0,0,1,159,259.75Z"/><path class="cls-2" d="M156.21,218.28A110.39,110.39,0,0,1,122,213.59a2.9,2.9,0,0,1-2-3.66h0a2.9,2.9,0,0,1,3.6-1.91c16.07,4.74,26.1,4.59,40.87,4.36,3.45,0,7-.1,11-.1,9.66,0,15.8-1.66,18.26-4.92,1.67-2.21,1.81-5.47.44-10.26s-6.37-5.14-17.61-5.65a172.76,172.76,0,0,1-18.37-1.57c-12.6-1.9-16-5-20.74-9.29-3.62-3.28-8.12-7.37-19-12.77-9.58-4.73-26.3-2.86-48.34,5.43a254.13,254.13,0,0,0-28.95,13.18,2.9,2.9,0,0,1-3.89-1.13h0a2.91,2.91,0,0,1,1.15-4A257.22,257.22,0,0,1,68,167.84c24-9,41.81-10.78,53-5.23,11.65,5.76,16.69,10.34,20.37,13.68,4.4,4,6.83,6.2,17.7,7.84a165.69,165.69,0,0,0,17.77,1.51c11.39.53,20.38.94,22.93,9.86,1.88,6.6,1.43,11.62-1.39,15.36-3.67,4.86-11.16,7.22-22.9,7.22-3.94,0-7.49.06-10.91.11C161.69,218.24,158.91,218.28,156.21,218.28Z"/></svg>