<svg xmlns="http://www.w3.org/2000/svg" viewBox="0 0 315.2 312.82"><defs><style>.cls-1{fill:#fff;}</style></defs><title>facebook</title><g id="Capa_2" data-name="Capa 2"><g id="Capa_1-2" data-name="Capa 1"><path class="cls-1" d="M132,204.17l.68-.38c.09.11.22.2.25.32a4.5,4.5,0,0,1,.17,1.08c0,1.44-.1,2.87-.1,4.3q0,46.45,0,92.92c0,2.91,0,5.83.06,8.74,0,1.45-.37,1.82-1.82,1.63a116.9,116.9,0,0,1-22.55-5.19c-15.83-5.31-30.33-13.23-43.92-22.84A148.74,148.74,0,0,1,7.21,204a177.73,177.73,0,0,1-5.76-26.69,144.5,144.5,0,0,1-1.1-30.19q4.36-60,47.2-102.25c21.8-21.51,47.9-35.26,77.9-41.56A158.54,158.54,0,0,1,149.23.25a150.56,150.56,0,0,1,19.7.15,154.51,154.51,0,0,1,75.58,25.8c33.35,22.32,55.11,53.05,65.56,91.77a150.11,150.11,0,0,1,4.32,24,152.7,152.7,0,0,1,.7,21.49A155.59,155.59,0,0,1,302,220.34a157.43,157.43,0,0,1-57,68.42,152.7,152.7,0,0,1-50.19,22c-2.83.68-5.69,1.25-8.54,1.82a15.38,15.38,0,0,1-2.63.21c-.93,0-1.12-.16-1.2-1.1a10.28,10.28,0,0,1,0-1.11v-96q0-4.73,0-9.45a7.81,7.81,0,0,1,0-.83.86.86,0,0,1,1-.89c1.16,0,2.32,0,3.48,0l28.05-.07c3.22,0,4-.7,4.45-3.83q2.28-15.09,4.62-30.17c.45-2.88.94-5.75,1.4-8.63.42-2.63-.08-3.22-2.82-3.21-6.29,0-12.59.12-18.88.13-5.42,0-10.83-.06-16.25-.08-1.16,0-2.31.06-3.47.09-1.36,0-1.85-.39-1.86-1.78,0-3.56,0-7.13,0-10.69,0-1.76-.11-3.52-.13-5.27,0-6.25-.13-12.52,1-18.69C185,111,192.14,105,201.93,104a162.42,162.42,0,0,1,20-.45c1.2,0,2.41.08,3.61,0,1.75-.1,2.27-.67,2.32-2.43,0-1.39,0-2.78,0-4.17q0-14.72,0-29.44v-.42c0-1.92-.37-2.38-2.26-2.62-6.79-.85-13.57-1.81-20.38-2.46a102.14,102.14,0,0,0-22.45.21,61.58,61.58,0,0,0-22.87,7.26C147.74,76.32,140,86.62,136,99.9a71.34,71.34,0,0,0-2.56,14.73c-.78,9.52-.49,19.06-.42,28.59,0,2.73,0,5.46,0,8.19,0,1.21,0,2.41.1,3.61.07,2-.8,2.8-2.78,2.62a25.55,25.55,0,0,0-2.77-.08c-7.17,0-14.35.07-21.52.08-3,0-5.93-.09-8.89-.12a14.81,14.81,0,0,0-2.21.1c-1.34.18-1.74.61-1.92,1.95A9.18,9.18,0,0,0,93,161v38.88a13.62,13.62,0,0,0,.13,1.8,1.68,1.68,0,0,0,1.52,1.56,15.43,15.43,0,0,0,1.79.15q16.45,0,32.92.06A3.3,3.3,0,0,1,132,204.17Z"/></g></g></svg>