<svg xmlns="http://www.w3.org/2000/svg" viewBox="0 0 486.2 193.58"><defs><style>.cls-1{opacity:0.26;}.cls-2{fill:#1b566d;stroke:#1d1d1b;stroke-miterlimit:10;}.cls-3{opacity:0.88;}.cls-4{fill:#07556c;}</style></defs><title>GVB-blue</title><g id="Capa_2" data-name="Capa 2"><g id="Capa_1-2" data-name="Capa 1"><g class="cls-1"><path class="cls-2" d="M244.5,125.6v65.68H226.9A69.83,69.83,0,0,0,222.18,179q-10.91,14.08-32.28,14.08-22.67,0-37.26-15.84t-14.59-42.88q0-26.27,14.12-44.17t42-17.9q21,0,33.74,10.64t16.57,30.22l-34.85,3.44q-2.58-18.28-16.06-18.29-17.68,0-17.68,33.66,0,20.34,5.66,26.82a17.59,17.59,0,0,0,13.74,6.49,16.49,16.49,0,0,0,11.12-4q4.59-4,4.68-10.82H191.7V125.6Z"/><path class="cls-2" d="M363.67,191.28H334.39L302.3,139.5a198,198,0,0,1-12.47-24.2,81.55,81.55,0,0,1,2.84,19.23v56.75H263.48V74.09h34L324.78,117a165.07,165.07,0,0,1,12.36,22.5,170.7,170.7,0,0,1-2.75-30.74V74.09h29.28Z"/><path class="cls-2" d="M485.52,74.09,449.15,191.28H412.49l-38-117.19h37.9L430.92,138c1.26,3.77,2.39,7.49,3.36,11.16l21.66-75Z"/></g><g class="cls-3"><path class="cls-4" d="M106.46,53.32V119H88.86a70.5,70.5,0,0,0-4.72-12.27q-10.9,14.07-32.28,14.08Q29.2,120.8,14.6,105T0,62.07Q0,35.81,14.12,17.9T56.15,0Q77.09,0,89.89,10.65t16.57,30.22L71.6,44.3Q69,26,55.55,26,37.86,26,37.86,59.67q0,20.34,5.67,26.83A17.6,17.6,0,0,0,57.26,93a16.49,16.49,0,0,0,11.12-4Q73,85.09,73.06,78.21H53.66V53.32Z"/><path class="cls-4" d="M225.62,119H196.35l-32.1-51.78A197.29,197.29,0,0,1,151.79,43a81.54,81.54,0,0,1,2.83,19.23V119H125.43V1.8h34l27.3,42.93A166.93,166.93,0,0,1,199.1,67.22a169.69,169.69,0,0,1-2.75-30.73V1.8h29.27Z"/><path class="cls-4" d="M347.47,1.8,311.11,119H274.45L236.42,1.8h37.91l18.54,63.88q1.9,5.67,3.37,11.16l21.66-75Z"/></g></g></g></svg>