<svg xmlns="http://www.w3.org/2000/svg" xmlns:xlink="http://www.w3.org/1999/xlink" viewBox="0 0 352.65 170.08"><defs><style>.cls-1{fill:#fff;}.cls-2{fill:url(#Degradado_sin_nombre_2);}.cls-3{fill:url(#Degradado_sin_nombre_2-2);}.cls-4{fill:url(#Degradado_sin_nombre_2-3);}</style><linearGradient id="Degradado_sin_nombre_2" x1="84.51" x2="84.51" y2="110.08" gradientUnits="userSpaceOnUse"><stop offset="0" stop-color="#028237"/><stop offset="1" stop-color="#49ab34"/></linearGradient><linearGradient id="Degradado_sin_nombre_2-2" x1="195.96" y1="1.64" x2="195.96" y2="108.44" xlink:href="#Degradado_sin_nombre_2"/><linearGradient id="Degradado_sin_nombre_2-3" x1="302.05" y1="1.64" x2="302.05" y2="108.44" xlink:href="#Degradado_sin_nombre_2"/></defs><title>gnv</title><g id="Capa_2" data-name="Capa 2"><g id="Capa_1-2" data-name="Capa 1"><path class="cls-1" d="M97,108.59v59.85H81a64,64,0,0,0-4.31-11.19q-9.93,12.83-29.41,12.83-20.65,0-34-14.43T0,116.57Q0,92.63,12.87,76.31T51.17,60q19.08,0,30.75,9.7T97,97.24l-31.77,3.13Q62.91,83.71,50.62,83.71q-16.12,0-16.12,30.67,0,18.54,5.17,24.45a16,16,0,0,0,12.52,5.9,15,15,0,0,0,10.13-3.6,12.52,12.52,0,0,0,4.26-9.85H48.9V108.59Z"/><path class="cls-1" d="M205.61,168.44H178.93l-29.25-47.19a179.68,179.68,0,0,1-11.35-22,74.3,74.3,0,0,1,2.58,17.52v51.72h-26.6V61.64h31l24.88,39.12a151.34,151.34,0,0,1,11.27,20.5,155.31,155.31,0,0,1-2.51-28V61.64h26.68Z"/><path class="cls-1" d="M316.65,61.64l-33.14,106.8H250.1L215.45,61.64H250l16.9,58.21Q268.63,125,270,130L289.7,61.64Z"/><path class="cls-2" d="M133,48.59v59.85H117a64,64,0,0,0-4.31-11.19q-9.93,12.82-29.41,12.83-20.66,0-34-14.43T36,56.57q0-23.94,12.87-40.26T87.17,0q19.08,0,30.75,9.7T133,37.24l-31.77,3.13Q98.91,23.71,86.62,23.71q-16.12,0-16.12,30.67,0,18.54,5.17,24.45a16,16,0,0,0,12.52,5.9,15,15,0,0,0,10.13-3.6,12.52,12.52,0,0,0,4.26-9.85H84.9V48.59Z"/><path class="cls-3" d="M241.61,108.44H214.93L185.68,61.25a179.68,179.68,0,0,1-11.35-22,74.3,74.3,0,0,1,2.58,17.52v51.72h-26.6V1.64h31l24.88,39.12a151.34,151.34,0,0,1,11.27,20.5,155.31,155.31,0,0,1-2.51-28V1.64h26.68Z"/><path class="cls-4" d="M352.65,1.64l-33.14,106.8H286.1L251.45,1.64H286l16.9,58.21Q304.63,65,306,70L325.7,1.64Z"/></g></g></svg>