<svg id="Capa_1" data-name="Capa 1" xmlns="http://www.w3.org/2000/svg" viewBox="0 0 348.65 225.68"><defs><style>.cls-1{fill:#fff;stroke:#fff;stroke-miterlimit:10;}</style></defs><title>GNV</title><path class="cls-1" d="M106.84,148.07l12.44,64.49L102,215.89a68.72,68.72,0,0,0-7-11.16q-8,15.89-29,19.94-22.24,4.29-39.58-8.5T4,176.83q-5-25.8,5.5-46.05t37.88-25.53q20.57-4,35.14,4.06t22,26.53l-33.58,10q-6-17.48-19.23-14.92-17.36,3.36-11,36.4,3.85,20,10.65,25.27A17.58,17.58,0,0,0,66,196.33a16.46,16.46,0,0,0,10.17-6q3.77-4.75,2.55-11.51l-19.05,3.67L55,158.07Z"/><path class="cls-1" d="M236.28,190l-28.74,5.55-41.33-44.76a197.89,197.89,0,0,1-16.82-21.41,81.54,81.54,0,0,1,6.43,18.35l10.75,55.72L137.91,209,115.71,93.89l33.38-6.44,34.94,37a165.13,165.13,0,0,1,16.4,19.75,170,170,0,0,1-8.52-29.66l-6.57-34.06,28.75-5.55Z"/><path class="cls-1" d="M333.73,51.83l-13.51,122-36,7L224.69,72.87l37.22-7.18,30.31,59.2q2.94,5.21,5.42,10.33l7.05-77.78Z"/></svg>