<svg id="Capa_1" data-name="Capa 1" xmlns="http://www.w3.org/2000/svg" viewBox="0 0 322.01 322.01"><defs><style>.cls-1{fill:#fff;}.cls-2{fill:#7ebe78;}.cls-3{fill:#50ac32;}</style></defs><title>icon</title><circle class="cls-1" cx="161" cy="161" r="161"/><path class="cls-2" d="M68.79,178.8a45.14,45.14,0,0,1-13.55-7.63,19.62,19.62,0,0,0-10.6-4.78c-.32-1-2.44-.69-1.84-2.23,3.65,0,6.86,2.12,10.57,1.78l-1.76-1c4.32-1.29,8.59-.09,12.82-.47-.2-1-1.59-.78-1.17-1.69a2.18,2.18,0,0,1,1.67-1.06l4.5-.76c-.94.78-1.22,1.31-1.14,2-.46,0-1-.14-1.33.25,0,0,.09.41.2.45.62.21,1,0,1.13-.7a14.12,14.12,0,0,0,1.84,0c.73-.1,1.93.47,2.06-.61s-1.18-.83-1.86-1.18c-.08,0-.1-.22-.2-.46,3.05-1.11,5.93-2.69,9.23-3.1-1-1.44.58-1.65,1.46-1.95a10.44,10.44,0,0,0,3.71-2.25c2.44-2.23,4.48-4.87,7.17-6.87a38.67,38.67,0,0,0,7.1-6.72c1.45-1.8,2.89-3.46,5.11-4.27.43-.16.45-.38.46-.74a3.26,3.26,0,0,1,2.18-2.68c2.25-1.11,3.63-3.4,6-4.25,1.19-.44,1.31-1.64,2.15-2.17a32.21,32.21,0,0,1,5.55-3.09c3-1.13,6.28-1.72,8.62-4.23,0,.4,0,.8,0,1.2l-.39.42a1.57,1.57,0,0,0-1.48,1.64c1-.34,1.42-.8,1.51-1.6l.42-.4c.4-.28,1-.48.84-1.1,0-.1-.57-.1-.87-.15-.08-1.17.69-1.5,1.64-1.64h0c-.23,1.17.88,1.18,1.43,1.67.3.28.6.58.52,1s-.43.4-.78.34c-1.76-.34-2.37,1.32-2.94,2.23-.7,1.12.21,2.69,1,3.68s2.19.57,3.28.31,1.56-.93.58-1.94c-.41-.41-.74-.86-.09-1.35.74,1.14,2.23-.25,3,.91a1.49,1.49,0,0,0,1.91.75c.87-.38.94-1.29,1-2.09a9.72,9.72,0,0,0-.22-2c-.27-1.48,1.64-.81,1.79-1.85a3.56,3.56,0,0,1,1,1.57,8.56,8.56,0,0,0,.33,1.37c.15.41.48.73.94.54,1.81-.78,4.36-2.2,4.4-3.43.07-2.32,1.94-3.22,2.44-5.1.06,2,1.79,2.18,2.9,3,.6.45,1.11,1.09,1.89,1,1-.06.23-1.41.95-1.69.58-.07.32,1.1,1.25.56a38.84,38.84,0,0,1,4.22-1.86c.33-.14.73-.22.9.14a.57.57,0,0,1-.48.76c-1.78.17-3.12,1.3-4.49,2.23-1.94,1.33-4.37,1.45-6.27,2.78-.76,0-1.55,0-1.83,1.07a2,2,0,0,0,1.9-1l3.25-.54c-.58,1.52-2.15.88-2.88,1.72h0a7,7,0,0,1-4.84,3.7c-2.69.47-3.24,1.36-1.84,3.61,0,0-.18.14-.4.32a2.34,2.34,0,0,0-3.17-1.25c-5,2.22-9.88,4.55-13.9,8.36-.53.5.13,1.43-.63,1.52-3,.37-4.27,3.19-6.54,4.6a11.58,11.58,0,0,0-3.87,3.23l-.05,0-.33.33-.06.1a4.68,4.68,0,0,0-2.44,3.64c-.14,1.45-1.47,2.53-1.26,4.09a6.77,6.77,0,0,0-.82-1.33,1.29,1.29,0,0,0-1.51-.14c-.61.29-.45.9-.44,1.42a.83.83,0,0,0,.88.88c.53,0,1.07,0,1.6.05-.53,1.31-.52,2.8-1.28,4.05l-.34.5,0,0c-.33-.11-.55.77-.93.1s-.59-1.2-1-1.77-.59-1.39-1.45-1.14-1.85,1-1.75,1.74c.18,1.45-.6,1.74-1.6,2.09-.37.13-.8.38-.64.88.23.67.72.43,1.15.19s.88-.61,1-.09c.67,2.89,1.78,1,2.88.08l.16,1.56a30.39,30.39,0,0,0,.48,5.47,3.78,3.78,0,0,0,3.86,3.53c1,0,1.54-.28,1.62-1.33.4-5,3.19-8.27,7.52-10.33a13.87,13.87,0,0,1,14.45.93c4.11,2.73,5.24,7,5.59,11.52.09,1.15.25,1.75,1.57,1.7,1.83-.08,3.67,0,5.5,0,10,0,20-.62,30,0a86.57,86.57,0,0,0,15.69-.41,2.67,2.67,0,0,0,2.65-2.18c1.74-5.87,4.77-10.29,11.54-11.29a14,14,0,0,1,9.24,1.69c4.54,2.59,6.66,6.83,6.73,12,0,1.65.82,1.86,2.1,1.34a9.4,9.4,0,0,0,4.68-3.33c.74-1.06.67-2.32.88-3.52a12,12,0,0,0-7.93-13.44c-2.32-.74-4.69-1.28-7-2-3.83-1.12-7.64-2.36-11.72-2.41-3.76,0-7.4-.7-10.35-3.53,1.41-.11,2.78-.88,4,.53a1.05,1.05,0,0,0,1.63-.18c.8-1.38,2.14-1.2,3.34-1.3.36-.72-2-1.33,0-2,0,.26,0,.56.37.61.07,0,.24-.16.23-.23,0-.34-.32-.36-.59-.39.05-.46-.2-1.09.27-1.31s.69.49,1,.77c.51.42,1,1.26,1.69.78,1.24-.87,1.52-.06,2.09.78.86,1.25,3,1.36,4.23.54.68-.45.74-2.56,2.3-1,1.34-1.79,1.71.21,2.26.7,1.12,1,1.92,1.68,3.43.41a11.29,11.29,0,0,1,4.2-2.48c1.55-.43,3.63-.87,4.69-2.85.5-.93,1.57-.58,1.61.78l-.08.18.1-.15c1.39.43.29.92,0,1.39a2.21,2.21,0,0,0,.06,2.53c.39.41,1.2,1.3,2.12.59.65-.51,1.47-.23,2.12-.47,2.71-1,5.61-.48,8.35-1.19h0a3.93,3.93,0,0,0,4.19,3.69c1.72,0,3.71-.75,5.06-.31,2.49.8,4.86-1,7.17.27.08,0,.28,0,.38-.1,2.41-2.1,5-.2,7.47-.42-.86.77-2.07.5-2.87,1.28,3.1.41,6.36-2.06,9.32.53a3,3,0,0,1-1.25,1.22,6.05,6.05,0,0,0-1-.56c-1.13,1.45-2.54.85-3.93.64a1.6,1.6,0,0,0-1.15.32c-1.32,1-2.58,1.5-3.91,0a.58.58,0,0,0-.51,0c-.76,1.61-2.19.28-3.48.79,2,1.52-1.14,3.86,1.29,5.38-.87-.4-2.32.23-2.31-.77a5.72,5.72,0,0,0-1.56-4.11c-.81-.9.38-1.3.44-2.4-.68.75-1.51.32-1.65,1.43a1.3,1.3,0,0,1-2,1c-1.11-.79-1.79-.26-2.52.32a2.15,2.15,0,0,1-2,.57c-2.85-.51-3.46.1-3.54,3.09,0,.21.05.48,0,.6-.92,1.05-.1,1.37.64,1.88.27.18,1.57.38.42,1.2-.81.57-1.14,1.09-.52,2.17s1.31,1.09,2.28.56c.81-.44,1.17.05,1.43.72-1,.67-2.58,0-2.76,1.34-.12.87,1.23-.37,1.65.59-1.07,1.46-2.38.95-3.67.33-.63-.3-1.85-.36-1.63,0,.9,1.52-.57,2.57-.37,3.88.17,1.15-.51,1.51-1.47,1-.66-.36-1.19-.56-1.85-.07a6.37,6.37,0,0,0,4.76,2.22c-1.22,1.27-3.6,1.77-4.72,1-.32-.21-.64-.35-.9-.05-1.21,1.43-2.6,1-4.24.11.36,1.34.41,2.47,1.3,3s1.66.86.25,1.71c-.38.22,0,.8.21.77,1.17-.12,2.14,1.19,3.39.44a1.18,1.18,0,0,1,1.52.08c.47.51-.07,1-.21,1.5-.41,1.49-2.14,1.08-3,1.94.78.86,1.74-.43,2.58.4-1,.57-1.64,1.71-2.84.53a1.37,1.37,0,0,0-1.34,0c-.94,1.19-1.6.65-2.7.09s-2,1.78-3.5,1c.21,2.08-.95.69-1.52.56-1.45-.34-2.68.52-2.55,1.88,0,.37.39.77-.19,1-2.1-2.17-2.79-1.54-4,1.19-.19.45.1,1.27-.69,1.28-.54,0-.54-.69-.78-1.07-1.19-1.88-2.28-2.15-3.51-1-.71.66-.85,2.59-2.52,1.35-1-.72-2.06,1-3.07-.39a1.62,1.62,0,0,0-2.37.24c-.5.61-.54,1.76.16,2,2.08.73,2.15,2.66,3.11,4.45a5.24,5.24,0,0,0-2.43-.41c-.4,0-1.11.13-.9.5.62,1.1-1.9,2.67.56,3.42.26.08.47.66.06.83-1.8.72.16,1.34.14,2-.91.33-1.66.29-2-.6s-.72-1.77-1.94-1.67c-.3,0-.62-.21-.49-.47.75-1.53-.23-1.49-1.2-1.29s-2-1.18-2.37-.38c-.46,1.06-2.21,1.17-1.79,2.7.18.66-.41.89-.84.91-.69,0-.33-.5-.36-.86a3.62,3.62,0,0,0-.34-1.15c-.53-1.1-.73-2.52-2.68-1.57-.66.32-2.07,1.24-2.81-.66-.86-2.21-1.68-2.15-3.08-.12a.87.87,0,0,1-.68.35c-.55.09-.44.64-.2.7,2.18.53,1.11,2.27,1.35,3.51h0c-.62-.19-1.86.45-1.78-.63.12-1.54-.79-2.7-1-4.09-.23-1.74-1-1.52-2.39-.87s.17,1.62-.56,2.18c-.8-.2-.84-.83-.84-1.44s-.54-1.12-.89-1.56c-.76-1-3.61.39-3.63,1.79,0,.91,1,1.26,1.68,1.64.42-.43.11-.72,0-1s-.38-.61.23-.87c.65.48,1.49.88,1.26,2a1,1,0,0,1-1.24.8c-1.74-.47-1.64.33-1.23,1.57.35,1-.31,1.49-1.23,1.68.08-1.33-2.16-1-1.8-2.54.08-.39.32-.82-.28-1a.91.91,0,0,0-1,.42c-.61.76-1.16,2-1.81,2.26-2.68,1.16-2.56,3.2-2.07,5.38.22,1-.14,1.78-.94,2-1.13.24-2.53-.73-3.33.84-.06,0-.15-.05-.18-.1-.73-1.24-1.27-.27-1.9.14-.24.17-.34.72-.92.19-2-1.82-4.86-.45-7-1.72a.79.79,0,0,0-.74.19c-1.64,2.16-3.21,1.15-4.87,0a2,2,0,0,0-3,.46c-.31.39-.28,1.28-1,1.07s-.44-1.07-.4-1.62a2.25,2.25,0,0,0-2.24-2.76,11.17,11.17,0,0,1-3.16-.71c-1.71-.75-3.82-.79-5.13-2.17a7.28,7.28,0,0,0-6.33-2.16c-.72.16-1.69.47-2.32-.37-.19-.26-.22-1.09-.61-.51s-2,.72-1.74,1.53c.61,1.78-1.27,3.06-.65,4.75.08.22-.22.51-.53.46-.16,0-.42-.27-.4-.33.78-2.17-1.23-3.54-1.68-5.32.88-.44.92.83,1.78.55-.48-1.44.69-2.7.49-4.17l.09-.14-.08.15a7.6,7.6,0,0,1-2.87-.41l-.14-.09.15.08c-.09.56.27,1.44-.59,1.51s-.61-.71-.57-1.24c.06-.73-.34-1.08-1.13-1.31.33,2.26-1.9,3.91-1.24,6.14.48,1.59-.52,1.79-1.59,1.83a6.32,6.32,0,0,1-6.1-3.55,13.14,13.14,0,0,0-7-5.93,24.14,24.14,0,0,1-7-3.73A52.78,52.78,0,0,0,89,186.63a111.06,111.06,0,0,0-10.66-5.41C75.31,180,72.53,177.32,68.79,178.8ZM96.5,164.91l.41-.41a.85.85,0,0,0,.41-.82l.41-.41a.88.88,0,0,0,.41-.81l.41-.42.41-.4.08-.15-.07.16c-.14.13-.28.27-.41.41l-.41.41a.86.86,0,0,0-.41.81l-.41.41a.87.87,0,0,0-.41.82l-.41.41-.08.14Zm-13.9-6.14.08-.13-.07.14-.09.14Zm36.79-18a.87.87,0,0,0-.81.43.8.8,0,0,0-.82.82l-.4.41a.9.9,0,0,0-.84.38.85.85,0,0,0-.82.83l-.39.42c-.25,0-.53.06-.58.39,0,.06.15.22.22.21.32-.06.35-.33.37-.59l.43-.38a.83.83,0,0,0,.83-.81l.79-.44.41-.41a.77.77,0,0,0,.82-.81.87.87,0,0,0,.83-.41l.07-.2Zm4.93-3.65.3-.42-.15-.09c0,.17-.11.33-.16.5l-.09.16ZM110.41,149l.29-.41-.14-.1-.15.5-.09.17Zm-5.74,6.11-.5.18a.73.73,0,0,0,.1.14l.43-.29.07-.19Zm-24.94,5.74c.63,0,1.28,0,1.54-.88a1.52,1.52,0,0,0-1.52.89l-.28.28.2.1Zm29.44-10.64a2.52,2.52,0,0,0-2,2.06l-.09.16.09-.17a2.5,2.5,0,0,0,2-2l.08-.18Zm-6.55,6.95c-1.6.53-2.31,1.83-2.84,3.29l-.08.15.08-.16a6.08,6.08,0,0,0,2.87-3.26c.1-.14.2-.27.29-.42l-.14-.1Zm117.25,12.71-.21-.33a6.75,6.75,0,0,0-4.09-4.16l-.11-.07c-3-1.83-5.93-1.61-8.92-.13-5.74,3.46-6.82,7.16-5.34,12.08a10.48,10.48,0,0,0,9.47,7c4.05,0,8.24-1.8,9.4-6.54a15.55,15.55,0,0,0,.27-6.65A1.18,1.18,0,0,0,219.87,169.84Zm-124.18-3.7c-8.59,2.8-17.45,2.19-26.29,1.86,5.37,1.88,28.18,1.29,36.29-.59a26.26,26.26,0,0,0-3,0c-2,.23-3.88.59-5.85,0-.76-.22-1.28-.43-1.17-1.31l.09-.16ZM133,164.41c-1.22-.41-2.41-.91-3.65-1.21-4.43-1.06-10.23,2.18-11.4,6.46-1.1,4-.12,7.51,2.42,10.87,3.17,4.19,11,4.18,14.37.48,2.78-3,3.74-9.2,1.64-12.76-.58-1-1.28-1.89-1.92-2.83,0-.58,1.49-.21.81-1.2a1.08,1.08,0,0,0-1.6-.26C133.42,164.1,133.2,164.26,133,164.41Zm30.57,31c0-1.26,0-2,0-2.72,0-.49-.16-1.25-.65-1-1.43.66-2.1-.66-3.12-1-.53-.18-1-.45-1.54-.09-1.41,1-2.72,2.17-2.79,4,0,1.67,1.12,2.68,2.48,3.44.34.19,1.16,0,.79.77-.56,1.24.38.94.86.81,1.51-.41,1,.38.82,1.17-.15.58-1.2.89-.5,1.73s.86,2.36,2.46,2.52c.35,0,1,.93.88,1.21-.32.87-.18,1.59.63,1.77s1.18-.92,1.25-1.34c.32-2,1.67-2,3.17-2.05,1.06,0,1.47-.49,1.12-1.58a6,6,0,0,1,0-1.4c-.21-2.76.25-5.81-3.09-7.23-.19-.08-.19-.14-.2-.37,0-1-.1-1-.65-.61A20.48,20.48,0,0,0,163.55,195.38Zm-10.66-6.19c-.94.25-1.93,1.32-2-.46,0-.82-.51-.81-1.12-.6s-1.49.07-1.18,1-.32,1.52-.69,2.19-1.74,1.2-.76,1.89,1.05-.87,1.56-1.39c.06-.06.23,0,.35,0-.34,5.24-.33,5.23,1.06,7.17.39.55.64,1.28,1.52,1a1.72,1.72,0,0,0,1.22-1.89c0-.63-.29-1.19.5-1.51,1-.39.57-1,.48-1.82-.17-1.57.58-3.31-1-4.57C152.67,190.13,152.83,189.71,152.89,189.19Zm5.92,12.71A21.13,21.13,0,0,0,155.1,197c-.43-.13-1,.1-1,.4a15.74,15.74,0,0,1-1,4.45c-.16.5.29.86.8,1s.91.07,1,.53c.23,1,.85,1.48,1.74,1A4.51,4.51,0,0,0,158.81,201.9Zm17.86-5.5c-1.15-.3-1.45.8-1.63,1.53s1.19,1.51,1.29,1.41c.71-.64,2.13-.66,2.16-1.8C178.51,196.73,177.63,196.42,176.67,196.4Zm-3.91.12c.22,3.26.41,3.55,2.64,3.72C173.94,199.3,174.48,197.33,172.76,196.52ZM224.69,154a18,18,0,0,0,7.52-.79ZM117.45,126.45c-1.12.61-2.2,1-2.74,2,0,0,.26.36.36.34a5.46,5.46,0,0,0,2.52-1.77S117.54,126.83,117.45,126.45Zm2.79,13.44c2.21-.75,2.5-1,3-2.35A7.67,7.67,0,0,0,120.24,139.89Zm6.08-17.22c0-.29-.14-.58-.47-.52a.59.59,0,0,0-.54.72c.06.21.33.51.53.52C126.28,123.42,126.31,123,126.32,122.67ZM111,131.51c.55.33.89,0,1.21-.37,0,0-.16-.41-.22-.4C111.55,130.79,111.07,130.86,111,131.51Zm142.43,19a3.92,3.92,0,0,0-2.27.45C252.19,151,252.84,151.26,253.45,150.47Zm-33.14,37.27c.27,0,.57-.12.55-.43s-.34-.32-.58-.27a.65.65,0,0,0-.44.28C219.74,187.7,220.05,187.71,220.31,187.74Zm10.16-44.67c.1-.11.34-.27.4-.48a.31.31,0,0,0-.44-.39,1.07,1.07,0,0,0-.44.57C229.93,143,230.1,143.12,230.47,143.07Zm18.45,8.19c.59.18,1,.37,1.28-.14A1.22,1.22,0,0,0,248.92,151.26Zm-3.57,4.19-.16-.42a2.63,2.63,0,0,0-.35.41c0,.07.07.21.11.32Zm-94.91-38.52-.15-.33a1.78,1.78,0,0,0-.17.3s0,.11.07.17ZM229,143.54l.16-.08c-.05,0-.09-.1-.13-.11s-.11.05-.16.08Zm-93.8-19,.06-.15c-.05,0-.12-.06-.13,0a.28.28,0,0,0-.06.15Zm12.88-2.63.13-.11-.11-.13-.17.18Z"/><path class="cls-3" d="M128.82,118.29c-2.34,2.51-5.59,3.1-8.62,4.23a32.21,32.21,0,0,0-5.55,3.09c-.84.53-1,1.73-2.15,2.17-2.32.85-3.7,3.14-6,4.25a3.26,3.26,0,0,0-2.18,2.68c0,.36,0,.58-.46.74-2.22.81-3.66,2.47-5.11,4.27a38.67,38.67,0,0,1-7.1,6.72c-2.69,2-4.73,4.64-7.17,6.87a10.44,10.44,0,0,1-3.71,2.25c-.88.3-2.42.51-1.46,1.95-3.3.41-6.18,2-9.23,3.1.1.24.12.42.2.46.68.35,2,.16,1.86,1.18s-1.33.51-2.06.61a14.12,14.12,0,0,1-1.84,0h0c-.08-.64.2-1.17,1.14-2l-4.5.76a2.18,2.18,0,0,0-1.67,1.06c-.42.91,1,.71,1.17,1.69-4.23.38-8.5-.82-12.82.47l1.76,1c-3.71.34-6.92-1.74-10.57-1.78-.6,1.54,1.52,1.22,1.84,2.23-1.76-.53-3.47-1.17-5.18-1.86s-1.26-1.9-.94-3c.43-1.54,1.4-.48,2.12-.26,5.47,1.61,10.92,2.15,16.56.61,3.46-.94,7.15-.69,10.67-1.67,8.42-2.35,15.21-7.13,21.5-13.09,5.67-5.37,10.85-11.23,16.81-16.3a69.17,69.17,0,0,1,8.66-6.44c5.63-3.45,10.71-7.64,16.16-11.33a30.1,30.1,0,0,1,8.16-3.62,2.92,2.92,0,0,1,1.54.15,2.37,2.37,0,0,0,2.91-1.13c1.19-2,3.57-2.09,5.54-2.59a55.25,55.25,0,0,0,7.76-2.5c2-.81,2.18-.62,2,1.57-.06.6-.24,1.2-.36,1.8l-.15.45h.47c1.59-.07,2.61-1.32,3.95-1.92,4.52-2.06,9.41-2.17,14.56-3.22-1.07,1.94-2.19,3.25-2.46,5.06-.17,1.11,0,1.52,1,1.16,7.79-3,16.45-1.3,24.28-4.61-1,2.22-1,4.68-2.46,6.49.3.38.64.45.81.27,2-2.11,4.64-2.46,7.34-2.38a37.93,37.93,0,0,0,11.53-.86,63.4,63.4,0,0,1-4.94,8.32c8.34-3.63,16,.6,24,1.72-1.3,2-1.78,4.3-3.63,5.76-.29.23-.77.48-.53,1s.7.36,1.07.25c2.19-.71,4.18.16,6.15.85a12.42,12.42,0,0,0,4.75,1c1.55-.09,1.35.56.73,1.53s-1.48,1.75-1.59,3.16c3.45-1,6,1,8.68,2.51a33.77,33.77,0,0,0,6.36,2.64c2.22.76,2.4.95.95,2.78-1,1.25-1,1.53.68,1.69,1.48.13,3,.6,3.46,2.37.17.62.63.59,1.14.53,3.17-.4,5.9,1.1,8.76,2,.31.1.57.36.89.43,3.29.74,3.34.95.93,3.71-3-2.59-6.22-.12-9.32-.53.8-.78,2-.51,2.87-1.28-2.5.22-5.06-1.68-7.47.42-.1.08-.3.15-.38.1-2.31-1.22-4.68.53-7.17-.27-1.35-.44-3.34.35-5.06.31a3.93,3.93,0,0,1-4.19-3.69c.43-.07.83-.19.71-.75a.38.38,0,0,0-.27-.23c-.58.13-.34.63-.42,1-2.74.71-5.64.17-8.35,1.19-.65.24-1.47,0-2.12.47-.92.71-1.73-.18-2.12-.59a2.21,2.21,0,0,1-.06-2.53c.26-.47,1.36-1,0-1.39l0,0c0-1.36-1.11-1.71-1.61-.78-1.06,2-3.14,2.42-4.69,2.85a11.29,11.29,0,0,0-4.2,2.48c-1.51,1.27-2.31.58-3.43-.41-.55-.49-.92-2.49-2.26-.7-1.56-1.57-1.62.54-2.3,1-1.22.82-3.37.71-4.23-.54-.57-.84-.85-1.65-2.09-.78-.68.48-1.18-.36-1.69-.78-.33-.28-.44-1-1-.77s-.22.85-.27,1.31h0c-2,.64.33,1.25,0,2-1.2.1-2.54-.08-3.34,1.3a1.05,1.05,0,0,1-1.63.18c-1.23-1.41-2.6-.64-4-.53,3,2.83,6.59,3.48,10.35,3.53,4.08.05,7.89,1.29,11.72,2.41,2.33.69,4.7,1.23,7,2a12,12,0,0,1,7.93,13.44c-.21,1.2-.14,2.46-.88,3.52,0-1.77-.06-3.54,0-5.3.2-4.51-2.55-7.42-5.83-9.6-3.73-2.49-8.25-3.2-12.63-4-2.91-.52-5.67-1.74-8.67-1.86-1.76-.08-3.53-.21-5.28-.36-2.45-.19-3.87-2.32-6-3.19-4.28-1.74-8.06-4.54-12.42-6.15-2.23-.82-3.77-2.88-6.39-3.18-1.31-.15-2.59.14-3.95-.23a55.58,55.58,0,0,0-13.72-1.78,214.77,214.77,0,0,0-23.65.93c-4.65.43-8.68,1.75-12.07,5a16.43,16.43,0,0,1-4.47,3.06,11.58,11.58,0,0,1,3.87-3.23c2.27-1.41,3.52-4.23,6.54-4.6.76-.09.1-1,.63-1.52,4-3.81,8.94-6.14,13.9-8.36a2.34,2.34,0,0,1,3.17,1.25c.22-.18.41-.31.4-.32-1.4-2.25-.85-3.14,1.84-3.61a7,7,0,0,0,4.84-3.7l.13.09-.14-.08c.73-.84,2.3-.2,2.88-1.72l-3.25.54-.07-.09c1.9-1.33,4.33-1.45,6.27-2.78,1.37-.93,2.71-2.06,4.49-2.23a.57.57,0,0,0,.48-.76c-.17-.36-.57-.28-.9-.14a38.84,38.84,0,0,0-4.22,1.86c-.93.54-.67-.63-1.25-.56-.72.28.08,1.63-.95,1.69-.78,0-1.29-.6-1.89-1-1.11-.85-2.84-1-2.9-3-.5,1.88-2.37,2.78-2.44,5.1,0,1.23-2.59,2.65-4.4,3.43-.46.19-.79-.13-.94-.54a8.56,8.56,0,0,1-.33-1.37,3.56,3.56,0,0,0-1-1.57c-.15,1-2.06.37-1.79,1.85a9.72,9.72,0,0,1,.22,2c0,.8-.1,1.71-1,2.09a1.49,1.49,0,0,1-1.91-.75c-.76-1.16-2.25.23-3-.91-.65.49-.32.94.09,1.35,1,1,.37,1.71-.58,1.94s-2.56.64-3.28-.31-1.66-2.56-1-3.68c.57-.91,1.18-2.57,2.94-2.23.35.06.7.14.78-.34s-.22-.76-.52-1c-.55-.49-1.66-.5-1.43-1.67.14-.09.53.18.42-.28l-.41.29c-.95.14-1.72.47-1.64,1.64Zm35.57,15.54c-1.32-.29-2.65-.65-3.32,1.11-.11.29-.81.33-.63.87a.88.88,0,0,0,1.22.43A25,25,0,0,0,166.8,134c1.47-1,2.65-2.28,4.63-1.45.13,0,.5-.1.51-.19.34-2.24,2.61-2.06,3.88-3.11.38-.31.43-.52,1.18-.23a4.31,4.31,0,0,0,3.76-.3,13.3,13.3,0,0,1,4.78-2.4,2.47,2.47,0,0,0,1.29-.54c.42-.45,1.19-.77.57-1.8-.76-1.24-1.32-.1-1.55.11-1.8,1.71-4.56.67-6.37,2.3-.11.1-.57,0-.74-.16-1-.9-1.5-.16-1.92.84-.43-1.21.36-2.07.21-3-.07-.47-.12-1.08-.76-1s-.28.62-.23,1a4.74,4.74,0,0,1-4.29,5.64c-2.78.12-4.42,2.43-6.87,3.11-.24.06-.33.68-.5,1.05Zm37.26,5.78-.12-.13c.95-.37,1.38-1.72,2.73-1.38,2.57.64,5.12-.5,7-1.54a10,10,0,0,1,4.94-1.52c1.11,0,2.3.12,1.89-1.68a1,1,0,0,1,.76-1.07c.56-.13.65.31.72.73-.15.09-.55-.19-.42.29l.41-.3c1.59-.94-.06-2.37.73-3.39a1.1,1.1,0,0,0-1.12.27c-1.63,1-3.16,2.41-5.34,1.21-.56-.31-.92.31-1.25.78-1.69,2.37-2.76,2.89-5.26,1.75-1.31-.61-1.72,0-2.27.72s-.89,1.7-1.64,1.71c-3.35.07-5.53,2.57-8.31,3.8a1.75,1.75,0,0,1-2.51-.76,11.68,11.68,0,0,1-.72-1.72c-.92.78-.15,1.82-.76,2.53-.48-.78.25-1.87-.79-2.73-.09.56-.17.88-.19,1.2-.11,1.67.52,3.5-1.32,4.76a.88.88,0,0,0,.31,1.52c1.43.61,2.69,1.59,4.24,1.9.32.06.77.43.93.09,1-2.32,4.08-2.29,5.21-4.52.19-.37.85-1.12,1.52-.62s1.22,0,1.45-.48C202.91,140.27,202.47,139.77,201.65,139.61ZM168.17,134l-.16-.06c0,.05-.06.12,0,.14a.24.24,0,0,0,.16,0S168.15,134,168.17,134Z"/><path class="cls-3" d="M68.79,178.8c3.74-1.48,6.52,1.19,9.53,2.42A111.06,111.06,0,0,1,89,186.63a52.78,52.78,0,0,1,8.48,5.12,24.14,24.14,0,0,0,7,3.73,13.14,13.14,0,0,1,7,5.93,6.32,6.32,0,0,0,6.1,3.55c1.07,0,2.07-.24,1.59-1.83-.66-2.23,1.57-3.88,1.24-6.14.79.23,1.19.58,1.13,1.31,0,.53-.22,1.3.57,1.24s.5-.95.59-1.51h0a7.6,7.6,0,0,0,2.87.41h0c.2,1.47-1,2.73-.49,4.17-.86.28-.9-1-1.78-.55.45,1.78,2.46,3.15,1.68,5.32,0,.06.24.31.4.33.31,0,.61-.24.53-.46-.62-1.69,1.26-3,.65-4.75-.27-.81,1.24-.8,1.74-1.53s.42.25.61.51c.63.84,1.6.53,2.32.37a7.28,7.28,0,0,1,6.33,2.16c1.31,1.38,3.42,1.42,5.13,2.17a11.17,11.17,0,0,0,3.16.71,2.25,2.25,0,0,1,2.24,2.76c0,.55-.35,1.39.4,1.62s.67-.68,1-1.07a2,2,0,0,1,3-.46c1.66,1.13,3.23,2.14,4.87,0a.79.79,0,0,1,.74-.19c2.19,1.27,5-.1,7,1.72.58.53.68,0,.92-.19.63-.41,1.17-1.38,1.9-.14,0,.05.12.07.18.1.8-1.57,2.2-.6,3.33-.84.8-.18,1.16-.93.94-2-.49-2.18-.61-4.22,2.07-5.38.65-.29,1.2-1.5,1.81-2.26a.91.91,0,0,1,1-.42c.6.17.36.6.28,1-.36,1.52,1.88,1.21,1.8,2.54.92-.19,1.58-.65,1.23-1.68-.41-1.24-.51-2,1.23-1.57a1,1,0,0,0,1.24-.8c.23-1.1-.61-1.5-1.26-2-.61.26-.32.58-.23.87s.39.59,0,1c-.72-.38-1.7-.73-1.68-1.64,0-1.4,2.87-2.74,3.63-1.79.35.44.88.86.89,1.56s0,1.24.84,1.44c.73-.56-.87-1.52.56-2.18s2.16-.87,2.39.87c.19,1.39,1.1,2.55,1,4.09-.08,1.08,1.16.44,1.78.63l.15.09-.16-.08c-.24-1.24.83-3-1.35-3.51-.24-.06-.35-.61.2-.7a.87.87,0,0,0,.68-.35c1.4-2,2.22-2.09,3.08.12.74,1.9,2.15,1,2.81.66,2-.95,2.15.47,2.68,1.57a3.62,3.62,0,0,1,.34,1.15c0,.36-.33.9.36.86.43,0,1-.25.84-.91-.42-1.53,1.33-1.64,1.79-2.7.34-.8,1.45.58,2.37.38s2-.24,1.2,1.29c-.13.26.19.49.49.47,1.22-.1,1.61.69,1.94,1.67s1.06.93,2,.6c0-.64-1.94-1.26-.14-2,.41-.17.2-.75-.06-.83-2.46-.75.06-2.32-.56-3.42-.21-.37.5-.48.9-.5a5.24,5.24,0,0,1,2.43.41c-1-1.79-1-3.72-3.11-4.45-.7-.24-.66-1.39-.16-2a1.62,1.62,0,0,1,2.37-.24c1,1.35,2.1-.33,3.07.39,1.67,1.24,1.81-.69,2.52-1.35,1.23-1.12,2.32-.85,3.51,1,.24.38.24,1.08.78,1.07.79,0,.5-.83.69-1.28,1.16-2.73,1.85-3.36,4-1.19.58-.24.23-.64.19-1-.13-1.36,1.1-2.22,2.55-1.88.57.13,1.73,1.52,1.52-.56,1.54.76,2.38-1.59,3.5-1s1.76,1.1,2.7-.09a1.37,1.37,0,0,1,1.34,0c1.2,1.18,1.86,0,2.84-.53-.84-.83-1.8.46-2.58-.4.87-.86,2.6-.45,3-1.94.14-.5.68-1,.21-1.5a1.18,1.18,0,0,0-1.52-.08c-1.25.75-2.22-.56-3.39-.44-.24,0-.59-.55-.21-.77,1.41-.85.64-1.13-.25-1.71s-.94-1.7-1.3-3c1.64.89,3,1.32,4.24-.11.26-.3.58-.16.9.05,1.12.73,3.5.23,4.72-1a6.37,6.37,0,0,1-4.76-2.22c.66-.49,1.19-.29,1.85.07,1,.52,1.64.16,1.47-1-.2-1.31,1.27-2.36.37-3.88-.22-.38,1-.32,1.63,0,1.29.62,2.6,1.13,3.67-.33-.42-1-1.77.28-1.65-.59.18-1.33,1.81-.67,2.76-1.34-.26-.67-.62-1.16-1.43-.72-1,.53-1.6.63-2.28-.56s-.29-1.6.52-2.17c1.15-.82-.15-1-.42-1.2-.74-.51-1.56-.83-.64-1.88.1-.12,0-.39,0-.6.08-3,.69-3.6,3.54-3.09a2.15,2.15,0,0,0,2-.57c.73-.58,1.41-1.11,2.52-.32a1.3,1.3,0,0,0,2-1c.14-1.11,1-.68,1.65-1.43-.06,1.1-1.25,1.5-.44,2.4a5.72,5.72,0,0,1,1.56,4.11c0,1,1.44.37,2.31.77-2.43-1.52.72-3.86-1.29-5.38,1.29-.51,2.72.82,3.48-.79a.58.58,0,0,1,.51,0c1.33,1.45,2.59,1,3.91,0a1.6,1.6,0,0,1,1.15-.32c1.39.21,2.8.81,3.93-.64a6.05,6.05,0,0,1,1,.56c-3.41,3.11-7,6-12.05,7.17,2.35,1.15,1.56,2.18.51,3.41-1.75,2-3.07,4.54-6.07,5.12-.64.13-.36.6-.09.92.43.52.92,1,1.33,1.53.27.35.77.85,0,1.13-3.32,1.2-5.54,4-8.45,5.79-1.62,1-3.16,2.15-5.12,2.37-1.08.12-1,.65-.65,1.39.72,1.68,1.4,3.38,2.12,5.07.27.63.51,1.2-.22,1.72-2.61,1.87-5.14,3.88-7.84,5.61-1.61,1-3.67.63-5.75,1a23,23,0,0,1,2.31,5c-6,1.64-12,3.49-18.62,3.37a43,43,0,0,0,2.09,4.13c.78,1.21.45,1.76-.81,1.87-4.81.43-9.25,2.88-14.18,2.6-1.61-.09-1,.67-.63,1.46s2,1.29,1.4,2.32c-.45.82-1.82.72-2.81.93-2.78.59-5.51,1.69-8.43.74a.65.65,0,0,0-.19,0c-1,.05-1.9-1.66-2.8-.56-.65.79.83,1.38,1.09,2.26.32,1.11.14,1.45-1,1.43-5.08-.11-10.19,1-15.26-.23-.89-.2-1.14.22-1,1,.35,1.42.47,2.91,1.64,4.31-6.54-.54-12.76-.92-18.51-3.63-1.35-.63-1.51-.26-1.42,1,.27,4,.26,4-3.38,2.24A176,176,0,0,0,133,216a35.24,35.24,0,0,1-9.13-4.39c-2.47-1.75-5.53-2.51-8.11-4.18-4.2-2.73-8-6.06-12.25-8.72-7.6-4.71-15.18-9.45-23-13.73C76.62,182.87,72.69,180.85,68.79,178.8Zm90.94,32.35c-.08-.44-.45-.43-.77-.42s-.78.11-.77.48.49.58.89.58S159.66,211.53,159.73,211.15Zm-32.83-3.08-.26,0s.08.09.12.1S126.85,208.09,126.9,208.07Z"/><path class="cls-3" d="M163.55,195.38a20.48,20.48,0,0,1,1.92-2c.55-.43.65-.36.65.61,0,.23,0,.29.2.37,3.34,1.42,2.88,4.47,3.09,7.23a6,6,0,0,0,0,1.4c.35,1.09-.06,1.57-1.12,1.58-1.5,0-2.85.06-3.17,2.05-.07.42-.45,1.52-1.25,1.34s-1-.9-.63-1.77c.11-.28-.53-1.18-.88-1.21-1.6-.16-1.72-1.62-2.46-2.52s.35-1.15.5-1.73c.21-.79.69-1.58-.82-1.17-.48.13-1.42.43-.86-.81.37-.8-.45-.58-.79-.77-1.36-.76-2.53-1.77-2.48-3.44.07-1.84,1.38-3,2.79-4,.51-.36,1-.09,1.54.09,1,.35,1.69,1.67,3.12,1,.49-.22.65.54.65,1C163.56,193.39,163.55,194.12,163.55,195.38Z"/><path class="cls-3" d="M152.89,189.19c-.06.52-.22.94-.11,1,1.62,1.26.87,3,1,4.57.09.78.5,1.43-.48,1.82-.79.32-.54.88-.5,1.51a1.72,1.72,0,0,1-1.22,1.89c-.88.25-1.13-.48-1.52-1-1.39-1.94-1.4-1.93-1.06-7.17-.12,0-.29-.07-.35,0-.51.52-.7,2-1.56,1.39s.42-1.25.76-1.89,1-1.19.69-2.19.64-.78,1.18-1,1.08-.22,1.12.6C151,190.51,152,189.44,152.89,189.19Z"/><path class="cls-3" d="M95.68,166.14c-.11.88.41,1.09,1.17,1.31,2,.57,3.89.21,5.85,0a26.26,26.26,0,0,1,3,0c-8.11,1.88-30.92,2.47-36.29.59,8.84.33,17.7.94,26.29-1.86Z"/><path class="cls-3" d="M158.81,201.91a4.52,4.52,0,0,1-2.21,2.51c-.89.47-1.51,0-1.74-1-.1-.46-.64-.42-1-.53s-1-.51-.8-1a15.74,15.74,0,0,0,1-4.45c0-.3.6-.53,1-.4A21,21,0,0,1,158.81,201.91Z"/><path class="cls-3" d="M110.09,159.25c-.39,1.4-1.6,2.33-2.13,3.64,0-.44-.09-.89-.16-1.56-1.1.94-2.21,2.81-2.88-.08-.12-.52-.67-.1-1,.09s-.92.48-1.15-.19c-.16-.5.27-.75.64-.88,1-.35,1.78-.64,1.6-2.09-.1-.76.89-1.5,1.75-1.74s1.11.59,1.45,1.14.63,1.18,1,1.77S109.76,159.14,110.09,159.25Z"/><path class="cls-3" d="M176.67,196.4c1,0,1.84.33,1.82,1.14,0,1.14-1.45,1.16-2.16,1.8-.1.1-1.48-.61-1.29-1.41S175.52,196.1,176.67,196.4Z"/><path class="cls-3" d="M215.46,165.28c-1.19,0-2.39.19-3.5-.56a1.84,1.84,0,0,0-1.93,0,5.1,5.1,0,0,1-3.49.43C209.53,163.67,212.51,163.45,215.46,165.28Z"/><path class="cls-1" d="M112,153.84a.78.78,0,0,1-.29.88c-.53,0-1.07,0-1.6-.05a.83.83,0,0,1-.88-.88c0-.52-.17-1.13.44-1.42a1.29,1.29,0,0,1,1.51.14A6.77,6.77,0,0,1,112,153.84Z"/><path class="cls-3" d="M219.66,169.51c-.32.46-.94.71-1.09.16-.51-1.82-2.33-2.66-3-4.32A6.75,6.75,0,0,1,219.66,169.51Z"/><path class="cls-3" d="M172.76,196.52c1.72.81,1.18,2.78,2.64,3.72C173.17,200.07,173,199.78,172.76,196.52Z"/><path class="cls-1" d="M224.69,154l7.52-.79A18,18,0,0,1,224.69,154Z"/><path class="cls-1" d="M117.45,126.45c.09.38.19.57.14.61a5.46,5.46,0,0,1-2.52,1.77c-.1,0-.39-.29-.36-.34C115.25,127.4,116.33,127.06,117.45,126.45Z"/><path class="cls-1" d="M99.78,160.42c.53-1.46,1.24-2.76,2.84-3.29l0,0c-.69,1.33-1.4,2.64-2.88,3.26Z"/><path class="cls-1" d="M115.68,146.11l-2.44,3.64A4.68,4.68,0,0,1,115.68,146.11Z"/><path class="cls-1" d="M120.24,139.89a7.67,7.67,0,0,1,3-2.35C122.74,138.91,122.45,139.14,120.24,139.89Z"/><path class="cls-1" d="M134.44,165.42a1.34,1.34,0,0,1-1.46-1c.22-.15.44-.31.67-.45a1.08,1.08,0,0,1,1.6.26C135.93,165.21,134.45,164.84,134.44,165.42Z"/><path class="cls-1" d="M107.14,152.24a2.52,2.52,0,0,1,2-2.06l0,0a2.5,2.5,0,0,1-2,2Z"/><path class="cls-1" d="M126.32,122.67c0,.35,0,.75-.48.72-.2,0-.47-.31-.53-.52a.59.59,0,0,1,.54-.72C126.18,122.09,126.29,122.38,126.32,122.67Z"/><path class="cls-1" d="M128.42,120c-.09.8-.55,1.26-1.51,1.6a1.57,1.57,0,0,1,1.48-1.64Z"/><path class="cls-1" d="M150.93,120.39a2,2,0,0,1-1.9,1c.28-1,1.07-1,1.83-1.07Z"/><path class="cls-1" d="M111,131.51c0-.65.53-.72,1-.77.06,0,.26.37.22.4C111.91,131.48,111.57,131.84,111,131.51Z"/><path class="cls-1" d="M68.29,162.87c-.09.7-.51.91-1.13.7-.11,0-.25-.4-.2-.45.37-.39.87-.23,1.33-.25Z"/><path class="cls-1" d="M220.31,187.74c-.26,0-.57,0-.47-.42a.65.65,0,0,1,.44-.28c.24,0,.57-.06.58.27S220.58,187.7,220.31,187.74Z"/><path class="cls-1" d="M79.75,160.83a1.52,1.52,0,0,1,1.52-.89c-.26.86-.91.85-1.54.88Z"/><path class="cls-1" d="M230.47,143.07c-.37.05-.54-.1-.48-.3a1.07,1.07,0,0,1,.44-.57.31.31,0,0,1,.44.39C230.81,142.8,230.57,143,230.47,143.07Z"/><path class="cls-1" d="M128.78,119.49c0-.4,0-.8,0-1.2h0c.3,0,.85,0,.87.15.12.62-.44.82-.84,1.1Z"/><path class="cls-1" d="M220.34,171.05c-.74-.18-.9-.58-.47-1.21A1.18,1.18,0,0,1,220.34,171.05Z"/><path class="cls-1" d="M245.35,155.45l-.4.31c0-.11-.14-.25-.11-.32a2.63,2.63,0,0,1,.35-.41Z"/><path class="cls-1" d="M204.06,144.46c.27,0,.55,0,.59.39,0,.07-.16.23-.23.23-.34-.05-.34-.35-.37-.61Z"/><path class="cls-1" d="M115.32,144.06c0,.26,0,.53-.37.59-.07,0-.23-.15-.22-.21,0-.33.33-.34.58-.39Z"/><path class="cls-1" d="M116.58,142.87a.83.83,0,0,1-.83.81l0-.05a.85.85,0,0,1,.82-.83Z"/><path class="cls-1" d="M118.6,141.21a.77.77,0,0,1-.82.81h0a.8.8,0,0,1,.82-.82Z"/><path class="cls-1" d="M104.7,155.11l-.43.29a.73.73,0,0,1-.1-.14l.5-.18Z"/><path class="cls-1" d="M102.62,157.13l.18-.5.14.1c-.09.15-.19.28-.28.42Z"/><path class="cls-1" d="M79.73,160.82l-.06.39-.2-.1.28-.28Z"/><path class="cls-1" d="M96.92,164.51a.87.87,0,0,1,.41-.82h0a.85.85,0,0,1-.41.82Z"/><path class="cls-1" d="M110.41,149l.15-.5.14.1-.29.41Z"/><path class="cls-1" d="M97.74,163.28a.86.86,0,0,1,.41-.81h0a.88.88,0,0,1-.41.81Z"/><path class="cls-1" d="M229,143.54l-.13-.11s.11-.08.16-.08.08.07.13.11Z"/><path class="cls-1" d="M117.37,142.43l-.79.44-.06-.07a.9.9,0,0,1,.84-.38Z"/><path class="cls-1" d="M124.31,137.1l.16-.5.15.09-.3.42Z"/><path class="cls-1" d="M135.19,124.53l-.13,0a.28.28,0,0,1,.06-.15s.08,0,.13,0Z"/><path class="cls-1" d="M148.07,121.9l-.15-.06.17-.18.11.13Z"/><path class="cls-1" d="M118.58,141.19a.87.87,0,0,1,.81-.43l0,0a.87.87,0,0,1-.83.41Z"/><path class="cls-1" d="M104.67,155.08l.1-.16-.07.19Z"/><path class="cls-1" d="M116.07,145.68l-.34.33Z"/><path class="cls-1" d="M82.61,158.78l.07-.14-.08.13Z"/><path class="cls-1" d="M82.6,158.77l-.08.15.09-.14Z"/><path class="cls-1" d="M110.41,158.77l-.34.5Z"/><path class="cls-1" d="M99.78,160.41l-.08.16.08-.15Z"/><path class="cls-1" d="M99,161.65l.07-.16-.08.15Z"/><path class="cls-1" d="M99,161.64l-.41.4v0l.41-.41Z"/><path class="cls-1" d="M98.55,162l-.41.42h0l.41-.41Z"/><path class="cls-1" d="M128.39,119.91l.39-.42.06.06-.42.4Z"/><path class="cls-1" d="M115.75,143.68l-.43.38h0l.39-.42Z"/><path class="cls-1" d="M97.33,163.69l.41-.41h0l-.41.41Z"/><path class="cls-1" d="M96.51,164.92l.41-.41h0l-.41.41Z"/><path class="cls-1" d="M96.5,164.91l-.07.15.08-.14Z"/><path class="cls-1" d="M124.32,137.11l-.1.15.09-.16Z"/><path class="cls-1" d="M95.69,166.14l.08-.16-.09.16Z"/><path class="cls-1" d="M119.39,140.76l.11-.16c0,.07,0,.14-.07.2Z"/><path class="cls-1" d="M109.17,150.18l.1-.16a1.42,1.42,0,0,1-.08.18Z"/><path class="cls-1" d="M107.14,152.23l-.09.17.09-.16Z"/><path class="cls-1" d="M110.41,149l-.09.16.09-.17Z"/><path class="cls-1" d="M231.87,141.62l-.1.15.08-.18Z"/><path class="cls-1" d="M122.68,198l-.15-.08.14.09Z"/><path class="cls-1" d="M125.54,198.45l.08-.15-.09.14Z"/><path class="cls-1" d="M117.78,142c-.14.14-.28.27-.41.41h0l.4-.41Z"/><path class="cls-3" d="M219.6,133c-.07-.42-.16-.86-.72-.73a1,1,0,0,0-.76,1.07c.41,1.8-.78,1.68-1.89,1.68a10,10,0,0,0-4.94,1.52c-1.91,1-4.46,2.18-7,1.54-1.35-.34-1.78,1-2.73,1.38l-.81.41-.48.26s.1.14.12.13.32-.16.48-.24l.81-.42c.82.15,1.26.65.85,1.41-.23.44-.63,1.09-1.45.48s-1.33.25-1.52.62c-1.13,2.23-4.18,2.2-5.21,4.52-.16.34-.61,0-.93-.09-1.55-.31-2.81-1.29-4.24-1.9a.88.88,0,0,1-.31-1.52c1.84-1.26,1.21-3.09,1.32-4.76,0-.32.1-.64.19-1.2,1,.86.31,1.95.79,2.73.61-.71-.16-1.75.76-2.53a11.68,11.68,0,0,0,.72,1.72,1.75,1.75,0,0,0,2.51.76c2.78-1.23,5-3.73,8.31-3.8.75,0,1.16-1.05,1.64-1.71s1-1.33,2.27-.72c2.5,1.14,3.57.62,5.26-1.75.33-.47.69-1.09,1.25-.78,2.18,1.2,3.71-.19,5.34-1.21a1.1,1.1,0,0,1,1.12-.27c-.79,1,.86,2.45-.73,3.39Z"/><path class="cls-3" d="M164.38,133.84c.17-.37.26-1,.5-1.05,2.45-.68,4.09-3,6.87-3.11A4.74,4.74,0,0,0,176,124c0-.38-.35-.9.23-1s.69.5.76,1c.15,1-.64,1.82-.21,3,.42-1,.9-1.74,1.92-.84.17.15.63.26.74.16,1.81-1.63,4.57-.59,6.37-2.3.23-.21.79-1.35,1.55-.11.62,1-.15,1.35-.57,1.8a2.47,2.47,0,0,1-1.29.54,13.3,13.3,0,0,0-4.78,2.4,4.31,4.31,0,0,1-3.76.3c-.75-.29-.8-.08-1.18.23-1.27,1.05-3.54.87-3.88,3.11,0,.09-.38.24-.51.19-2-.83-3.16.43-4.63,1.45a25,25,0,0,1-5.14,2.27.88.88,0,0,1-1.22-.43c-.18-.54.52-.58.63-.87.67-1.76,2-1.4,3.32-1.11l.14.09Z"/><path class="cls-1" d="M244.55,144.47c.08-.36-.16-.86.42-1a.38.38,0,0,1,.27.23c.12.56-.28.68-.71.75Z"/><path class="cls-1" d="M168.17,134s0,.13,0,.13a.24.24,0,0,1-.16,0s0-.09,0-.14Z"/><path class="cls-1" d="M219.59,133l-.41.3c-.13-.48.27-.2.42-.29Z"/><path class="cls-1" d="M151.3,121.57l.14.08-.13-.09Z"/><path class="cls-3" d="M159.73,211.15c-.07.38-.27.65-.65.64s-.88-.11-.89-.58.43-.47.77-.48S159.65,210.71,159.73,211.15Z"/><path class="cls-1" d="M126.9,208.07c-.05,0-.1.07-.14.07s-.08-.06-.12-.1Z"/><path class="cls-1" d="M191,202.54l.16.08-.15-.09Z"/><path class="cls-1" d="M200.72,139.89l.81-.41.12.13-.81.43Z"/><path class="cls-1" d="M200.84,140c-.16.08-.31.17-.48.24s-.08-.08-.12-.13l.48-.26Z"/><path class="cls-1" d="M164.38,133.84l.15.08-.14-.09Z"/></svg>