<svg xmlns="http://www.w3.org/2000/svg" viewBox="0 0 153.2 140.03"><defs><style>.cls-1{fill:#fff;}</style></defs><title>hand-flower</title><g id="Capa_2" data-name="Capa 2"><g id="Capa_1-2" data-name="Capa 1"><path class="cls-1" d="M114.36,76l7.38-8.48c3.76-4.31,7.39-8.74,11.33-12.88,3.31-3.47,7.58-4.27,12.09-2.77a11.16,11.16,0,0,1,7.91,9.57,11.42,11.42,0,0,1-2.79,9.45c-9.51,11-19,22-28.56,32.89a22.34,22.34,0,0,1-15.21,7.74c-.94.08-1.89.12-2.83.12H72.86a16.51,16.51,0,0,0-12,5C53.41,124.11,46,131.58,38.52,139a2.5,2.5,0,0,1-4,0L1,105.54a2.6,2.6,0,0,1,0-4.15Q13.24,89.15,25.48,76.94a22,22,0,0,1,16.09-6.63h62.05A11.57,11.57,0,0,1,114,75.66a1.55,1.55,0,0,0,.19.24S114.25,76,114.36,76ZM53.17,117.52c1.36-1.39,2.69-2.8,4.07-4.15a22,22,0,0,1,16-6.57c10,0,20.07,0,30.1,0a19.33,19.33,0,0,0,15.5-7.14q13.66-15.82,27.43-31.6a7,7,0,0,0,1.79-6.75,6.63,6.63,0,0,0-5.21-5,6.9,6.9,0,0,0-7.08,2.53q-9.51,11-19,21.94a4.19,4.19,0,0,0-1.08,2.41,11.45,11.45,0,0,1-11.59,10.23H71.92c-.5,0-1,0-1.52,0a2.42,2.42,0,0,1-2.19-3c.32-1.28,1.19-1.85,2.89-1.85q16.38,0,32.75,0a6.69,6.69,0,1,0,0-13.37H41.41a17.86,17.86,0,0,0-7,1.45,21.68,21.68,0,0,0-6.77,5.09c-1.71,1.73-3.48,3.4-5.18,5.06C32.74,97.08,42.89,107.24,53.17,117.52ZM19,90.7,6.25,103.45l30.22,30.23,12.81-12.74C39.22,110.87,29.09,100.74,19,90.7Z"/><path class="cls-1" d="M74.12,18.55a44.29,44.29,0,0,1-5,1A16.17,16.17,0,0,1,52.43,9.46C52,8.4,51.54,7.34,51.11,6.27c-.69-1.68-.22-3,1.45-3.62,2.31-.87,4.6-2,7-2.36,6.8-1,12.28,1.4,16.29,7,.23.33.44.67.7,1.06.75-1,1.42-2,2.21-2.88A16.43,16.43,0,0,1,97.32,1.25c1.16.48,2.33.94,3.47,1.45a2.29,2.29,0,0,1,1.5,3c-1.05,2.82-2.05,5.67-4,8a16.51,16.51,0,0,1-18.41,5l-.76-.27v5.87A48.77,48.77,0,0,1,84.41,26c6.76,3.14,10.68,8.45,11.29,15.9C96.35,50,93,56.3,85.93,60.26,79.35,64,72.56,63.63,66.16,59.6,55.8,53.07,54.44,38.09,63.34,29.68a19.12,19.12,0,0,1,10-5.09c.29-.05.75-.43.76-.67C74.15,22.13,74.12,20.34,74.12,18.55ZM62.34,43.45A14.31,14.31,0,1,0,76.17,29.19,14.36,14.36,0,0,0,62.34,43.45ZM80,13.27A11.47,11.47,0,0,0,96.63,6.4,11.46,11.46,0,0,0,80,13.27ZM56.54,6.4a11.47,11.47,0,0,0,16.72,6.82C70.9,6,62.85,2.68,56.54,6.4Z"/><path class="cls-1" d="M74.53,40.41c.73.25,1.35.5,2,.68,1,.3,2,.52,3,.83a4.5,4.5,0,0,1,3.41,4,4.71,4.71,0,0,1-2.84,4.93,1.49,1.49,0,0,0-1.07,1.64,2.42,2.42,0,0,1-4.83,0,1.47,1.47,0,0,0-1-1.66,5,5,0,0,1-2.84-3.39A2,2,0,0,1,74.14,46a3.06,3.06,0,0,0,4.18,1.38,1.18,1.18,0,0,0,.61-.81c0-.26-.39-.62-.69-.73-.89-.31-1.82-.51-2.73-.79a18.21,18.21,0,0,1-2.38-.85,4,4,0,0,1-2.47-3.88,4.2,4.2,0,0,1,2.49-4,1.53,1.53,0,0,0,1.08-1.65A2.41,2.41,0,0,1,79,34.55a2.07,2.07,0,0,0,1.17,1.94,7.2,7.2,0,0,1,2,2.41,2,2,0,0,1-.92,2.76,2.07,2.07,0,0,1-2.76-1.18A2.39,2.39,0,0,0,74.53,40.41Z"/></g></g></svg>