<svg xmlns="http://www.w3.org/2000/svg" viewBox="0 0 176.77 184.63"><defs><style>.cls-1{fill:#fff;}</style></defs><title>hand-money</title><g id="Capa_2" data-name="Capa 2"><g id="Capa_1-2" data-name="Capa 1"><path class="cls-1" d="M56.72,168.8v13.61H0V98H56.72v9.89c1.61-.15,3.1-.31,4.6-.43a113.49,113.49,0,0,1,16-.11A114.75,114.75,0,0,1,104.13,112a69.33,69.33,0,0,1,18.6,8.46A38.79,38.79,0,0,1,134,131.64c.1.16.21.31.42.61,1-.95,2-1.88,2.94-2.79,3.25-3.08,6.43-6.23,9.78-9.19a36.66,36.66,0,0,1,5.36-3.69c4.23-2.56,8.65-2.55,13.16-.75a17.55,17.55,0,0,1,11.08,16.65,17.79,17.79,0,0,1-4.31,11.15c-5.54,6.7-11.87,12.63-18,18.72a108.74,108.74,0,0,1-11.07,10.16,59.12,59.12,0,0,1-24.74,11,64.39,64.39,0,0,1-27.49-.75,69.23,69.23,0,0,1-20.94-9.09,31,31,0,0,0-12.34-4.78C57.51,168.83,57.17,168.83,56.72,168.8Zm-.08-51.33c0,2.72,0,5.24,0,7.75,0,5.3.07,10.59.08,15.89,0,5.7,0,11.41,0,17.12,0,.48-.07.9.67,1a44.08,44.08,0,0,1,20,7.28,52.54,52.54,0,0,0,23.71,8.19,53.87,53.87,0,0,0,29.57-5.24,36.13,36.13,0,0,0,9.37-6.33c3-2.88,5.81-5.86,8.72-8.79,5.24-5.28,10.51-10.52,15.73-15.83a8.63,8.63,0,0,0,1.16-10.71,7.18,7.18,0,0,0-9.32-2.66,19.54,19.54,0,0,0-2.69,1.58,84.62,84.62,0,0,0-17.87,17.83,6.25,6.25,0,0,0-.8,1.59c-2.42,6.86-9.45,11.85-16.71,11.5a55,55,0,0,1-9.7-1.46,132.38,132.38,0,0,1-17.85-5.82l-.68-.3,3.42-9,1,.33c3.49,1.25,7,2.58,10.5,3.72,4.28,1.37,8.55,2.77,13.14,2.85a8.07,8.07,0,0,0,6.51-2.84,7.89,7.89,0,0,0-.3-10.36,51.31,51.31,0,0,0-14.78-10.38A81.66,81.66,0,0,0,82.61,117a100.71,100.71,0,0,0-20-.18C60.65,117,58.72,117.23,56.64,117.47Zm-8,57V106H8v68.49Z"/><path class="cls-1" d="M157,27.63A27.54,27.54,0,1,1,130.71,0,27.51,27.51,0,0,1,157,27.63Zm-7.64-.1a19.89,19.89,0,1,0-20.15,19.91A20,20,0,0,0,149.38,27.53Z"/><path class="cls-1" d="M87.7,97.46a27.53,27.53,0,1,1,27.51-26.62A27.55,27.55,0,0,1,87.7,97.46Zm0-7.63a20,20,0,0,0,19.84-21.16C107,58.25,97.65,49.6,87.15,50a19.9,19.9,0,0,0,.58,39.8Z"/><path class="cls-1" d="M137.21,21.94h-4.65c-.27-1.13-.54-2.27-2.13-2.26,0,1.47,0,2.91,0,4.35,0,.22.37.5.63.64,1.34.69,2.76,1.25,4,2a5.59,5.59,0,0,1,2.6,5.52,5.7,5.7,0,0,1-3.77,5,27.72,27.72,0,0,1-3.35,1V41h-1.85V38.11c-2.34-.17-4.58-.46-6.08-2.42a7.89,7.89,0,0,1-1.46-4.6h4.53a18.42,18.42,0,0,0,1.39,2.54c.26.34.93.36,1.53.57,0-1.8,0-3.41,0-5,0-.22-.38-.51-.64-.63-1-.46-2.07-.8-3-1.31a5.75,5.75,0,0,1-3.22-6.36,5.86,5.86,0,0,1,4.84-4.81c.61-.14,1.23-.21,1.9-.32l.1-1.65h1.73l.12,1.64c2.26.13,4.39.59,5.77,2.62A5.46,5.46,0,0,1,137.21,21.94Zm-6.67,12.14c1.47-.24,2.19-1,2.13-2.2a2.36,2.36,0,0,0-2.13-2.27Zm-2-10.39v-4c-1.26.13-1.92.69-2,1.67S127.05,23.23,128.5,23.69Z"/><path class="cls-1" d="M89.35,83.44H87.53V80.58c-2.55-.19-4.94-.6-6.41-2.9a7.3,7.3,0,0,1-1.05-4.14h4.5A19.92,19.92,0,0,0,86,76.12c.24.32.89.34,1.45.54,0-1.77,0-3.37,0-5,0-.25-.41-.56-.7-.7-1.15-.57-2.4-1-3.49-1.64A5.52,5.52,0,0,1,80.59,63c.58-2.66,2.48-4,5-4.51.52-.11,1.05-.18,1.65-.28V56.55H89.1l.11,1.66c2.24.14,4.36.56,5.74,2.54a5.77,5.77,0,0,1,1,3.64H91.31c-.14-1.15-.49-2.16-2.09-2.26a21.45,21.45,0,0,1,0,2.78c-.21,1.52.31,2.3,1.85,2.73a9,9,0,0,1,3.2,1.76,6,6,0,0,1-1.48,10.29,9.3,9.3,0,0,1-2.54.7c-.76.09-.94.39-.89,1.08S89.35,82.72,89.35,83.44Zm0-7c1.3-.11,2-.72,2.08-1.81A2.48,2.48,0,0,0,89.37,72ZM87.29,62.18c-1.37.14-1.91.64-2,1.7s.63,1.91,2,2.19Z"/></g></g></svg>