<svg xmlns="http://www.w3.org/2000/svg" viewBox="0 0 206.44 206.44"><defs><style>.cls-1{fill:#fff;}.cls-2{fill:none;stroke:#fff;stroke-miterlimit:10;stroke-width:2px;}</style></defs><title>hoja-circle</title><g id="Capa_2" data-name="Capa 2"><g id="Capa_1-2" data-name="Capa 1"><path class="cls-1" d="M145.35,38.41c.2-1.86-5.56-.65-5.56-.65-28.24,4-44.44,26-44.44,26C74.71,87,65.62,119.89,61.52,136c-3.87,15.16-6.14,36.41-6.39,38.79,1.54-3.94,24.59-62.72,46.14-84.1,22.31-22.13,33-43.69,33-43.69s6.65-7.34.45,6.44,3.77-.12.17,9.27-28,51-28,51-5.41-16.38-23.7,20.41C66.75,167,61.46,177.37,60.52,179.21c17.23,4.51,27.63-.41,27.63-.41,28.32-11,40.12-59.73,43.51-71.48S145.15,40.27,145.35,38.41ZM106,131.88c-3.07,6.66-8.84,10.54-12.91,8.67s-4.87-8.78-1.8-15.44,8.84-10.54,12.9-8.67S109.05,125.22,106,131.88Z"/><path class="cls-1" d="M55.11,175s0-.08,0-.22l-.08.21c-2.12,3.43,5.3,4.57,5.3,4.57l.17-.32c-1.26-.33-2.54-.7-3.86-1.13C56.66,178.08,54.56,177.75,55.11,175Z"/><circle class="cls-2" cx="103.22" cy="103.22" r="102.22"/></g></g></svg>