<svg xmlns="http://www.w3.org/2000/svg" viewBox="0 0 306.47 306.49"><defs><style>.cls-1{fill:#fff;}</style></defs><title>instagram</title><g id="Capa_2" data-name="Capa 2"><g id="Capa_1-2" data-name="Capa 1"><path class="cls-1" d="M306.47,153.26A153.26,153.26,0,0,1,153.22,306.49c-84,0-153.51-68-153.22-153.8C.3,67,70.29-.81,154.74,0,238.32.82,306.47,68.78,306.47,153.26Zm-240.13,0v51.92a37.09,37.09,0,0,0,.82,8.07,34.53,34.53,0,0,0,33.69,26.92c34.93-.07,69.86,0,104.79,0a35.19,35.19,0,0,0,6.32-.56,34.3,34.3,0,0,0,28.17-33.72q0-52.59,0-105.19a33.61,33.61,0,0,0-.61-6.33,34.3,34.3,0,0,0-33.81-27.91q-52.45,0-104.93,0a29.27,29.27,0,0,0-4.86.33c-12.74,2.14-21.76,9.14-27,21a33.48,33.48,0,0,0-2.6,13.74Q66.35,127.34,66.34,153.22Z"/><path class="cls-1" d="M83.39,135.87v1.47q0,36.14,0,72.27a5.47,5.47,0,0,0,.1,1.34,19.33,19.33,0,0,0,3.78,7.58,12.29,12.29,0,0,0,9.36,4.77c8,.14,16,.21,24,.28,11.48.1,23,.26,34.44.26,15.86,0,31.72-.1,47.58-.21a65.37,65.37,0,0,0,8.51-.54,13.13,13.13,0,0,0,11.17-12.77q0-36.21,0-72.4c0-.44-.06-.88-.09-1.28-1.72-.3-24.16-.22-25.1.07,0,.12.06.26.11.37a37.22,37.22,0,0,1,3.27,15,46.14,46.14,0,0,1-.8,9.3,49.47,49.47,0,0,1-11.11,23.91c-.76.89-1.65,1.68-2.39,2.59a29.8,29.8,0,0,1-9.72,7.66,51.69,51.69,0,0,1-21.06,5.54,49.11,49.11,0,0,1-20.36-2.95c-13-4.93-21.65-14.29-26.52-27.14-4.16-11-4-22.27-1-33.56.09-.37.17-.74.27-1.21Zm69.86-13.32A30.72,30.72,0,1,0,184,153.34C184,136.3,170,122.35,153.25,122.55Zm65.76-21H219c0-1.4.09-2.8,0-4.2a9.91,9.91,0,0,0-8.65-9.2,44.71,44.71,0,0,0-9.18-.07,9.83,9.83,0,0,0-9.08,9.1,43.11,43.11,0,0,0,0,8.65,10,10,0,0,0,9.23,9.12c2.83.12,5.69.15,8.52,0A10.15,10.15,0,0,0,219,104.71Z"/><path class="cls-1" d="M83.39,135.87l24.4.33c-.1.47-.18.84-.27,1.21-3,11.29-3.11,22.55,1,33.56,4.87,12.85,13.49,22.21,26.52,27.14a49.11,49.11,0,0,0,20.36,2.95,51.69,51.69,0,0,0,21.06-5.54,29.8,29.8,0,0,0,9.72-7.66c.74-.91,1.63-1.7,2.39-2.59a49.47,49.47,0,0,0,11.11-23.91,46.14,46.14,0,0,0,.8-9.3,37.22,37.22,0,0,0-3.27-15c0-.11-.07-.25-.11-.37.94-.29,23.38-.37,25.1-.07,0,.4.09.84.09,1.28q0,36.2,0,72.4a13.13,13.13,0,0,1-11.17,12.77,65.37,65.37,0,0,1-8.51.54c-15.86.11-31.72.21-47.58.21-11.48,0-23-.16-34.44-.26-8-.07-16-.14-24-.28a12.29,12.29,0,0,1-9.36-4.77A19.33,19.33,0,0,1,83.5,211a5.47,5.47,0,0,1-.1-1.34q0-36.13,0-72.27Z"/><path class="cls-1" d="M153.25,122.55C170,122.35,184,136.3,184,153.34a30.75,30.75,0,1,1-30.73-30.79Z"/><path class="cls-1" d="M219,101.59v3.12A10.15,10.15,0,0,1,209.78,115c-2.83.16-5.69.13-8.52,0a10,10,0,0,1-9.23-9.12,43.11,43.11,0,0,1,0-8.65,9.83,9.83,0,0,1,9.08-9.1,44.71,44.71,0,0,1,9.18.07,9.91,9.91,0,0,1,8.65,9.2c.1,1.4,0,2.8,0,4.2Z"/></g></g></svg>