<svg xmlns="http://www.w3.org/2000/svg" viewBox="0 0 543.36 543.35"><defs><style>.cls-1{fill:#fff;}</style></defs><title>location</title><g id="Capa_2" data-name="Capa 2"><g id="Capa_1-2" data-name="Capa 1"><path class="cls-1" d="M0,271.48C.26,119.46,124.37-1.2,273.94,0c148,1.2,269.88,121.72,269.42,272.6-.46,149.75-122.19,270.93-272,270.74C121.39,543.16,0,421.6,0,271.48ZM271.06,42.2A157.69,157.69,0,0,0,196,60.81c-23.05,12.5-42.33,29.45-58.34,50.11-19.87,25.61-30.55,54.77-32.78,87.06a194.5,194.5,0,0,0,.77,33.52,176.52,176.52,0,0,0,6.66,33.3c5.21,17.14,12.81,33.22,21.49,48.82,11.52,20.72,24.82,40.28,38.78,59.39C188,394.12,203.66,415.06,219,436.24c17.29,23.92,33.35,48.64,47.09,74.82,1,1.92,2.78,3.45,4.25,5.12a2.13,2.13,0,0,0,1.21.69c2.85.3,5.65.22,7.71-2.2a26.52,26.52,0,0,0,2.65-3.67c1.15-1.92,2.13-3.94,3.2-5.9a570.33,570.33,0,0,1,42.8-66.2c14.51-19.59,29.35-38.94,44-58.44,12-16.06,23.71-32.37,34.21-49.5,11.13-18.18,20.69-37.12,27.4-57.41,7.51-22.74,11.41-46,9.87-70A163.05,163.05,0,0,0,437.71,170c-6.13-22-16.41-41.9-29.78-60.27C392.12,88,372.42,70.85,348.12,59.17S297.91,42.54,271.06,42.2Z"/><path class="cls-1" d="M185,211.8c-.16,49,40,89,89.11,89.11,47.46.1,88.73-39.14,88.75-88.73,0-48.91-39.79-89.23-88-89.14C224.3,123.14,184.78,163.22,185,211.8Z"/><path class="cls-1" d="M185,211.8c-.22-48.58,39.3-88.66,89.86-88.76,48.21-.09,88,40.23,88,89.14,0,49.59-41.29,88.83-88.75,88.73C225,300.81,184.84,260.79,185,211.8Z"/></g></g></svg>