<svg xmlns="http://www.w3.org/2000/svg" viewBox="0 0 225.69 225.51"><defs><style>.cls-1{fill:#ef861c;stroke:#fff;stroke-miterlimit:10;}</style></defs><title>manubrio-didi</title><g id="Capa_2" data-name="Capa 2"><g id="Capa_1-2" data-name="Capa 1"><path class="cls-1" d="M204.08,83.62l13.8-6.5c16,33.67,5.6,87.87-30.23,119.25C147.8,231.27,91,234.6,48.14,204.56c-40.52-28.4-58.42-83.24-41-127.48L21.48,83.5c-.33,16.81,4.23,18.55,19.42,13.16,16.72-5.94,34.4-11.1,52-12.39,33.73-2.48,67.69-2.28,98.86,14.81,2.19,1.2,7.36.86,8.5-.69,2.65-3.62,3.67-8.42,5.35-12.74Zm1.54,48c-2.34-1.14-3.26-1.88-4.28-2.05-33.24-5.61-76.93,34.3-74.73,68.11.48,7.41,4.43,8.39,10.44,6.56C173.45,193.09,196.11,169.08,205.62,131.59Zm-184.82-2c4.15,37.47,43.41,75.67,76.49,74.49C99.42,183,92.4,164.23,77.9,150.32,62.72,135.75,43,128.52,20.8,129.62Zm115-5.91a23,23,0,1,0-46-1.15,23,23,0,0,0,46,1.15Z"/><path class="cls-1" d="M192.67,61.44c-3,1.63-5.93,3.94-9.18,4.67s-6.63-.22-10-.43c1-3.23,1.42-6.87,3.23-9.57s4.94-4.24,6.93-7.51c-3,1.52-5.78,3.66-8.93,4.36-2.71.6-5.79-.44-8.7-.76.63-2.54.73-5.41,2-7.55,1.78-2.92,4.48-5.28,5.7-9-2.71,2.18-5.12,5.12-8.2,6.32s-8.83,2.35-10.26.74c-2.29-2.59-4-8.91-2.44-11.12A176.47,176.47,0,0,1,174.36,6.75c5.3-5,12.93-5.38,17.45,1.16,10.95,15.85,21.09,32.28,31.39,48.58,3.68,5.83,1.83,10.9-4,13.76a174,174,0,0,1-25.09,10.51c-2.81.87-6.81-2.09-10.27-3.3,1.39-3.42,2.42-7,4.28-10.18,1.13-1.9,3.54-3,5.37-4.54Z"/><path class="cls-1" d="M43.71,49.3l8.42,16.32L35.36,63.8c1.39,3.39,3.71,9,6,14.64C34.55,78.38,27.13,80,21,77.93-.6,70.49-3.26,65.28,7.17,45.54c7.27-13.75,17.25-26.3,27.51-38.08,2.56-2.93,12.87-3.23,16.2-.53,8.4,6.79,15.37,15.63,21.75,24.48,1.63,2.26.06,8.55-2.16,11.24-1.35,1.63-7.15.82-10.25-.53C56.71,40.59,54,37.24,49.7,35.73c2.38,2.65,5.14,5.06,7,8,1.52,2.42,2,5.52,2.89,8.32-3.2.19-6.51,1-9.57.39C47.34,52,44.94,50,43.71,49.3Z"/><path class="cls-1" d="M64.67,11.27c32.22-14.29,64.1-14.46,96.22.09-5.15,11.7-11.26,14.57-24.6,11.15a98.49,98.49,0,0,0-46.15,0C77.34,25.62,70.44,24.09,64.67,11.27Z"/></g></g></svg>