<svg id="Capa_1" data-name="Capa 1" xmlns="http://www.w3.org/2000/svg" viewBox="0 0 327.52 327.52"><defs><style>.cls-1{fill:#fff;}.cls-2{fill:#50ac32;}</style></defs><title>icon</title><circle class="cls-1" cx="163.76" cy="163.76" r="163.76"/><path class="cls-2" d="M170.27,77.36V66.54h12.15V77.11q20.45,2.28,26.71,19.43l-19.81,6.2q-3-8-12.4-8-7.84,0-7.85,5.06a4.22,4.22,0,0,0,1.33,3.14c.88.86,3.33,1.74,7.33,2.63q13.74,3,19.68,5.38a21.78,21.78,0,0,1,9.91,8,22.72,22.72,0,0,1,4,13.37,24,24,0,0,1-7.69,18.12q-7.69,7.31-21.17,8.82V170.2H170.27V159.25q-22.9-2.72-28.79-24.11L163.63,131q2.85,9.74,14.36,9.74,9,0,9-4.93a4.67,4.67,0,0,0-2.09-4.05q-2.08-1.46-7.4-2.54Q156.61,125,151,118.42a22.64,22.64,0,0,1-5.61-15.12,25.27,25.27,0,0,1,6.14-16.73Q157.68,79.25,170.27,77.36Z"/><path class="cls-2" d="M196,196.86l-3.1-3.7c17.25-14.43,31-20.47,40.93-17.95a13.84,13.84,0,0,1,9.43,7.58l-4.49,1.77v0a9,9,0,0,0-6.26-4.73C226.75,178.47,215.76,180.3,196,196.86Z"/><path class="cls-2" d="M166.71,252.54c-3.84,0-7-1.18-10.56-3-3.08-1.59-10-4.95-17.41-8.51-10.49-5.07-22.37-10.81-26.79-13.23-3.73-2.05-14.11,4.71-21,10.66a2.41,2.41,0,0,1-3.34-.2h0a2.4,2.4,0,0,1,.21-3.46,96,96,0,0,1,8.39-6.39c8.17-5.46,14.09-7,18.1-4.84,4.31,2.36,16.13,8.07,26.56,13.11,7.4,3.58,14.39,6.95,17.53,8.57,6.28,3.24,11,4.74,27.36-4.77,14.12-8.18,55.79-36.41,68.22-44.87a7.8,7.8,0,0,0,3.46-6.86c-.09-1.41-.36-5.68-10.26-5.26a7.86,7.86,0,0,0-3.61,1.08l-41.24,24.13a2.41,2.41,0,0,1-3.29-.86v0a2.4,2.4,0,0,1,.86-3.29l41.24-24.12a12.64,12.64,0,0,1,5.84-1.74c12.73-.54,15,5.89,15.28,9.77a12.62,12.62,0,0,1-5.56,11.16c-12.46,8.48-54.25,36.79-68.51,45.06-8.36,4.84-14.29,7.25-19.22,7.79A21.31,21.31,0,0,1,166.71,252.54Z"/><path class="cls-2" d="M164.37,218.09A91.75,91.75,0,0,1,136,214.2a2.42,2.42,0,0,1-1.63-3h0a2.42,2.42,0,0,1,3-1.59c13.36,3.94,21.68,3.81,33.95,3.63,2.86,0,5.82-.09,9.14-.09,8,0,13.12-1.37,15.16-4.08,1.39-1.84,1.51-4.55.37-8.53s-5.29-4.26-14.63-4.69a142.8,142.8,0,0,1-15.26-1.31c-10.46-1.57-13.3-4.15-17.22-7.71-3-2.73-6.74-6.12-15.81-10.6-8-3.94-21.85-2.38-40.16,4.5a210.87,210.87,0,0,0-24,10.95,2.41,2.41,0,0,1-3.23-.93h0a2.4,2.4,0,0,1,1-3.31A211.29,211.29,0,0,1,91.12,176.2c19.9-7.49,34.72-8.95,44-4.34,9.68,4.78,13.87,8.58,16.92,11.36,3.66,3.32,5.68,5.15,14.7,6.51A138.27,138.27,0,0,0,181.54,191c9.46.43,16.93.78,19.05,8.19,1.56,5.47,1.19,9.65-1.16,12.75-3,4-9.26,6-19,6-3.28,0-6.22,0-9.07.09C168.92,218.06,166.61,218.09,164.37,218.09Z"/></svg>