<svg id="Capa_1" data-name="Capa 1" xmlns="http://www.w3.org/2000/svg" viewBox="0 0 541.88 541.89"><defs><style>.cls-1{fill:#fff;}</style></defs><title>phone</title><path class="cls-1" d="M541.88,270.91c0,149.74-121.28,270.94-271,271C122.1,541.92-.11,421.47,0,270.76.11,119.14,123.9-1.19,273.17,0,420.5,1.2,541.77,120.89,541.88,270.91ZM350.93,461.44c6.51-.69,13.05-1.19,19.53-2.12a104.08,104.08,0,0,0,40.29-14.54c15.38-9.51,28.31-21.87,40.59-35a18.59,18.59,0,0,0,4.92-13.88,28.19,28.19,0,0,0-3.17-11.46,50.09,50.09,0,0,0-7.16-10.75,100.81,100.81,0,0,0-7.53-8.06,405.73,405.73,0,0,0-31.94-27.2A75.82,75.82,0,0,0,385.27,327q-16.93-5.73-31.79,4.21a48.2,48.2,0,0,0-5.91,4.5c-6.95,6.37-13.94,12.71-20.66,19.33-7.66,7.53-16.56,10.21-27,7.92-7.86-1.73-14.86-5.36-21.42-9.88a179.51,179.51,0,0,1-20.94-17.17c-12.46-11.69-23.47-24.67-34-38.09-6.71-8.57-13.09-17.37-18.1-27.07-4-7.7-7.32-15.64-8.59-24.29s.68-16.35,6.57-22.94a51.26,51.26,0,0,1,9.25-8,155.64,155.64,0,0,0,22.56-19.32,32.87,32.87,0,0,0,9.53-19.69,44.08,44.08,0,0,0-1.43-16.13c-1.81-7.11-5.14-13.59-8.59-20-7.09-13.2-15.66-25.46-24.38-37.6a55.65,55.65,0,0,0-5.33-6.16,44.93,44.93,0,0,0-12.39-9.33c-6.93-3.39-13.92-3.51-20.73.11a51.92,51.92,0,0,0-8.48,5.8c-5.94,4.87-11.71,9.93-17.52,14.94a117.86,117.86,0,0,0-24.1,28.11,113.49,113.49,0,0,0-15.7,47.88,152.51,152.51,0,0,0,1.15,39,166.65,166.65,0,0,0,10.22,36.38c8.3,20.81,19.22,40.21,31.82,58.69,15,22.06,32.27,42.34,50.62,61.68a348.17,348.17,0,0,0,48.75,43.23c16.6,12,34.19,22.16,53.45,29.29C317.87,458.18,334,461.71,350.93,461.44Z"/></svg>