<svg xmlns="http://www.w3.org/2000/svg" viewBox="0 0 549.82 549.86"><defs><style>.cls-1{fill:#fff;}</style></defs><title>twitter</title><g id="Capa_2" data-name="Capa 2"><g id="Capa_1-2" data-name="Capa 1"><path class="cls-1" d="M274.87,549.86C123.39,549.89-.73,427,0,273.58.73,121.12,124.73,0,275,0,424.81,0,549.89,121,549.82,275.1,549.74,428.54,425.32,550,274.87,549.86ZM79.69,423.53l-.1.64a19.46,19.46,0,0,0,1.67,1.19c4,2.34,8,4.76,12,7a239.1,239.1,0,0,0,104.92,28.83,251.07,251.07,0,0,0,31.39-.7,255.89,255.89,0,0,0,32.94-4.83q71-15.42,120.58-68.59c26.26-28.25,44.45-61.14,55.76-97.91A231.44,231.44,0,0,0,449,229.75c.22-5.75.16-11.51.09-17.26a6,6,0,0,1,2.7-5.52c1-.67,1.92-1.43,2.87-2.17a169.07,169.07,0,0,0,34.5-36.45,3.31,3.31,0,0,0,1.07-2.42,14.6,14.6,0,0,0-1.49.45,174.79,174.79,0,0,1-37.4,11c-2.31.41-4.62,1-7.55.51a88.26,88.26,0,0,0,22-19.65c6.43-8.17,13.48-21.71,13.32-25.92-.93.49-1.76.9-2.56,1.35a171.87,171.87,0,0,1-48,18.14,4,4,0,0,1-4.11-1.19,55.41,55.41,0,0,0-4.5-4.31c-20.13-16.52-42.86-23.9-68.94-19.7q-35.61,5.73-56.34,35.18c-12.9,18.37-17.42,38.83-14.36,61,.3,2.11.68,4.21,1.08,6.64-1.08,0-1.93.05-2.77,0a245.85,245.85,0,0,1-32.53-4.27c-43.56-8.85-81.75-28.31-114.75-58a253.14,253.14,0,0,1-22.74-23.69c-.6-.7-1.25-1.36-1.93-2.09a81.43,81.43,0,0,0-11.41,47c2,27.59,14.49,49.37,36.91,65.64a53.85,53.85,0,0,1-12.89-1.38,122.18,122.18,0,0,1-12.45-3.47c-4-1.4-7.89-3.26-12-5a11.69,11.69,0,0,0-.23,1.85,110.28,110.28,0,0,0,.75,11.23,85.12,85.12,0,0,0,28.11,51.3c10.22,9.11,22.28,14.84,35.42,18.42A4.49,4.49,0,0,1,161.3,328c-.68.22-1.11.4-1.57.51a81.75,81.75,0,0,1-14.93,2.12,85.45,85.45,0,0,1-17.93-.92,16,16,0,0,0-2.62.05c14,36.45,40.39,55.38,78.95,58.7C166.29,416.2,125.24,427.7,79.69,423.53Z"/></g></g></svg>