<svg xmlns="http://www.w3.org/2000/svg" viewBox="0 0 288 288"><defs><style>.cls-1{fill:#fff;stroke:#ef861c;stroke-width:0.5px;}.cls-1,.cls-2{stroke-miterlimit:10;}.cls-2{fill:none;stroke:#fff;stroke-width:2px;}</style></defs><title>user-icon</title><g id="Capa_2" data-name="Capa 2"><g id="Capa_1-2" data-name="Capa 1"><path class="cls-1" d="M133.66,254.63c-20.47-.53-41-1.07-60.77-7.2a59.57,59.57,0,0,1-9.61-4.07c-6.66-3.43-9-8.83-9.85-16.49-2.09-19.72,7.83-31.87,23.89-39.82,10.48-5.19,21.77-9,33-12.34,10.15-3,13.52-11,7.94-19.91-3.4-5.44-5.61-11.62-8.39-17.45-.61-1.3-1-3-2.07-3.75-9.6-7-11.45-17.28-9.68-27.62A38.31,38.31,0,0,0,98,92.88c-2.62-16.69.61-32.26,10.53-46,12.39-17.1,36-19.45,52.26-5.75a5.26,5.26,0,0,0,3.55.81c9.31-.79,16.16,2.94,20.57,11.1,6.83,12.62,6.59,26.27,5.46,40-.34,4.22-.86,8.13.08,12.54,2.14,10.11-.47,19.42-7.72,27.25-1.82,2-2.89,4.68-4.18,7.11-3,5.56-5.53,11.38-8.86,16.71-5.6,9-3.29,15.41,7.07,17.63a125.45,125.45,0,0,1,38.37,15c15.62,9.29,21.53,22.81,19.29,40.46-.64,5-4.09,7.88-8.07,9.4-10,3.82-20.19,7.74-30.62,10.22C175.35,254.15,154.56,255.41,133.66,254.63Zm7.24-49.35a90.32,90.32,0,0,0-10.43,37.16c-.25,4,1.34,5.57,4.89,5.76,4.49.24,9,.49,13.47.43,8.79-.12,9.2-.64,8.25-9.14a49.12,49.12,0,0,0-1-7.41c-2.48-9.06-5.16-18.07-7.87-27.48l9-5.52c-1.85-4.7-10.42-12.28-13.36-11.18-5.5,2.08-10.87,4.84-13.93,11Z"/><circle class="cls-2" cx="144" cy="144" r="143"/></g></g></svg>