<?xml version="1.0" standalone="no"?>
<!DOCTYPE svg PUBLIC "-//W3C//DTD SVG 20010904//EN"
 "http://www.w3.org/TR/2001/REC-SVG-20010904/DTD/svg10.dtd">
<svg version="1.0" xmlns="http://www.w3.org/2000/svg"
 width="782.000000pt" height="782.000000pt" viewBox="0 0 782.000000 782.000000"
 preserveAspectRatio="xMidYMid meet">
<metadata>
Created by potrace 1.14, written by Peter Selinger 2001-2017
</metadata>
<g transform="translate(0.000000,782.000000) scale(0.100000,-0.100000)"
fill="#000000" stroke="none">
<path d="M6626 7642 c-4 -3 -28 -6 -54 -8 -44 -1 -158 -13 -192 -19 -8 -2 -37
-6 -64 -9 -54 -8 -200 -33 -231 -41 -11 -2 -39 -9 -63 -15 -23 -6 -55 -12 -70
-14 -15 -2 -34 -6 -42 -9 -12 -4 -270 -78 -320 -91 -8 -3 -15 -5 -15 -5 0 -2
-167 -60 -185 -65 -14 -4 -101 -39 -175 -70 -16 -7 -41 -18 -55 -23 -14 -6
-105 -50 -203 -97 -194 -95 -344 -180 -510 -293 -60 -40 -111 -73 -114 -73 -3
0 -41 -25 -85 -55 -44 -30 -81 -55 -84 -55 -2 0 -12 -7 -21 -14 -10 -8 -75
-56 -145 -107 -137 -99 -297 -225 -422 -332 -119 -103 -224 -197 -296 -265
-68 -65 -300 -294 -300 -297 0 -1 -33 -35 -72 -77 -77 -78 -202 -215 -259
-283 -19 -22 -41 -47 -50 -55 -9 -8 -38 -42 -64 -75 -26 -33 -52 -64 -59 -70
-6 -5 -34 -38 -61 -73 -28 -35 -58 -73 -68 -85 -10 -12 -31 -37 -45 -56 -15
-19 -39 -48 -53 -65 -14 -17 -88 -114 -164 -216 -225 -302 -253 -341 -453
-640 -89 -135 -167 -252 -172 -260 -113 -177 -140 -222 -140 -230 0 -4 -4 -10
-8 -12 -4 -1 -62 -93 -129 -203 -112 -185 -163 -274 -240 -415 -17 -30 -40
-73 -53 -95 -47 -82 -330 -648 -330 -660 0 -8 -3 -15 -8 -17 -4 -1 -26 -43
-49 -93 -86 -186 -116 -252 -153 -330 -20 -44 -40 -90 -44 -102 -4 -13 -12
-23 -17 -23 -6 0 -8 -4 -5 -8 3 -5 -1 -19 -7 -33 -7 -13 -23 -49 -36 -79 -13
-30 -36 -83 -52 -117 -47 -103 -62 -137 -65 -151 -1 -7 -16 -41 -32 -77 -20
-42 -26 -62 -16 -58 8 3 14 11 14 18 0 7 4 15 8 17 4 2 28 30 54 63 25 33 55
71 67 85 11 14 24 30 28 35 16 20 113 141 126 155 7 8 89 107 182 220 93 113
172 207 175 210 3 3 27 32 55 65 27 33 55 65 60 71 6 6 27 30 46 54 18 23 45
54 59 69 14 15 46 52 72 82 56 66 81 95 116 134 15 17 60 68 101 115 40 47 81
92 90 101 9 8 40 43 70 77 29 34 73 83 97 108 24 25 44 47 44 49 0 2 19 23 42
48 24 24 69 73 101 108 313 341 892 922 1188 1191 22 20 140 125 205 183 58
52 140 122 163 140 14 10 28 22 31 25 3 3 43 37 89 74 46 37 96 79 110 92 14
13 31 24 38 24 6 0 13 4 15 9 2 5 33 31 70 59 38 28 74 56 80 62 7 6 65 47
128 90 63 44 120 83 125 87 35 28 266 165 410 244 94 51 172 96 173 101 2 4
10 8 17 8 15 0 188 101 193 112 2 5 7 6 12 3 5 -3 14 0 22 7 19 19 118 78 129
78 5 0 9 4 9 10 0 5 11 12 24 16 14 3 32 14 42 25 9 10 21 19 27 19 9 0 104
61 254 161 40 27 77 49 83 49 5 0 10 4 10 8 0 4 25 23 55 41 30 18 67 44 82
57 15 13 33 24 40 24 6 0 13 4 15 8 2 4 26 23 53 42 28 19 52 37 55 40 3 3 21
17 40 30 45 31 263 192 270 200 3 3 32 25 65 49 33 25 62 47 65 50 3 4 59 49
126 102 66 53 132 108 147 121 15 14 38 33 52 44 15 10 39 30 54 44 15 14 61
54 101 90 136 119 343 313 414 389 33 35 104 83 126 86 3 0 10 3 15 7 6 3 27
9 48 13 39 8 67 -5 63 -28 -2 -15 -48 -110 -56 -117 -3 -3 -16 -21 -27 -40
-12 -19 -30 -44 -40 -55 -10 -11 -31 -38 -47 -60 -17 -22 -38 -47 -48 -56 -10
-9 -18 -19 -18 -23 0 -4 -10 -17 -22 -29 -13 -13 -45 -51 -73 -85 -27 -34 -53
-62 -57 -62 -5 0 -8 -4 -8 -10 0 -9 -25 -42 -57 -75 -7 -7 -9 -15 -6 -19 4 -3
1 -6 -5 -6 -10 0 -56 -76 -54 -90 0 -3 -4 -13 -9 -22 -11 -21 18 -40 53 -34
13 3 23 5 23 6 0 9 89 3 96 -6 11 -14 -26 -114 -42 -114 -5 0 -9 -5 -9 -10 0
-20 -120 -164 -275 -329 -191 -203 -879 -884 -1249 -1236 -60 -57 -371 -352
-421 -400 -50 -48 -295 -279 -346 -326 -20 -19 -94 -88 -164 -154 -118 -111
-153 -141 -156 -133 -1 2 -3 12 -5 23 -15 100 -65 186 -134 230 -36 23 -116
43 -156 40 -60 -6 -120 -17 -138 -27 -12 -6 -23 -11 -26 -11 -24 1 -208 -88
-256 -124 -17 -12 -36 -23 -42 -23 -7 0 -12 -4 -12 -8 0 -5 -12 -15 -27 -23
-16 -8 -30 -16 -33 -19 -3 -3 -48 -37 -101 -76 -53 -40 -108 -82 -122 -95 -14
-13 -37 -33 -50 -44 -138 -116 -281 -250 -448 -420 -149 -151 -182 -186 -509
-535 -63 -68 -135 -144 -160 -170 -25 -26 -88 -93 -140 -150 -52 -56 -117
-126 -145 -154 -27 -29 -106 -112 -175 -186 -69 -73 -143 -152 -165 -175 -22
-24 -89 -95 -150 -160 -60 -64 -137 -145 -170 -180 -33 -34 -107 -112 -164
-174 -58 -61 -133 -142 -169 -179 -35 -37 -123 -130 -195 -206 -73 -76 -149
-157 -170 -178 -20 -22 -35 -43 -32 -47 2 -5 19 -16 37 -26 18 -9 56 -29 83
-45 59 -34 249 -129 320 -160 28 -11 59 -25 70 -30 22 -11 212 -79 235 -85 8
-2 64 -18 123 -35 60 -17 123 -33 140 -36 31 -4 50 -8 92 -17 101 -22 204 -30
375 -30 187 1 170 0 310 19 98 14 289 59 353 83 15 6 27 8 27 5 0 -4 6 -2 12
3 7 6 38 18 68 28 30 10 60 21 65 25 6 5 13 9 18 9 4 0 22 7 40 14 109 46 153
68 252 121 61 33 120 64 132 70 13 6 23 14 23 19 0 4 5 7 11 7 6 0 50 26 97
57 48 32 91 60 97 62 5 2 15 9 22 15 6 6 35 27 64 46 28 19 63 45 76 57 13 13
28 23 33 23 6 0 10 4 10 8 0 4 12 15 28 24 15 9 36 25 47 35 11 10 43 36 70
58 197 158 526 478 720 699 33 38 67 76 75 85 30 31 177 207 268 321 51 63
101 125 112 136 11 12 20 25 20 28 0 10 62 89 78 99 6 4 12 14 12 22 0 7 4 15
9 17 4 2 28 31 52 64 24 34 93 131 154 215 60 85 108 156 107 158 -2 2 1 7 6
10 15 10 282 415 446 676 21 33 62 98 92 145 30 47 98 162 151 255 54 94 102
173 108 177 5 4 6 8 1 8 -5 0 -4 6 1 13 6 6 25 39 43 72 18 33 41 74 50 90 9
17 38 71 65 120 27 50 57 102 67 118 11 15 17 27 14 27 -3 0 10 26 28 58 34
59 99 180 241 447 23 44 68 130 101 190 32 61 69 133 83 160 13 28 33 62 43
78 11 15 16 27 12 27 -3 0 -2 6 4 13 9 10 45 79 158 297 16 30 32 57 36 58 5
2 8 11 8 21 0 9 7 26 15 38 14 19 158 295 213 408 13 28 28 52 33 53 5 2 9 11
9 21 0 9 4 21 9 26 5 6 65 120 134 255 298 584 407 803 407 821 0 40 -109 87
-240 104 -19 3 -48 7 -65 9 -54 9 -119 17 -170 22 -27 3 -68 7 -90 10 -58 8
-623 13 -629 6z m-2776 -3986 c68 -16 180 -88 180 -116 0 -5 4 -10 8 -10 8 0
32 -50 59 -120 18 -45 12 -218 -9 -295 -11 -38 -21 -74 -22 -80 -12 -45 -86
-192 -132 -256 -140 -201 -280 -327 -469 -423 -121 -61 -183 -78 -294 -81
-134 -4 -212 25 -286 107 -40 44 -51 68 -82 164 -10 30 -9 169 1 230 12 79 68
219 128 326 31 54 126 178 182 237 58 60 191 169 246 200 88 51 115 64 179 86
39 14 88 28 108 31 21 3 39 7 40 8 6 6 131 -1 163 -8z"/>
<path d="M24 969 c-13 -14 -19 -36 -19 -68 0 -39 6 -56 34 -92 19 -24 54 -60
79 -79 48 -37 152 -100 165 -100 24 0 -6 25 -113 95 -101 67 -122 85 -135 118
-16 39 -13 92 7 130 12 23 5 22 -18 -4z"/>
</g>
</svg>
